<svg width="230" height="279" viewBox="0 0 230 279" fill="none" xmlns="http://www.w3.org/2000/svg">
<path d="M37.2641 257.938L40.1625 266.164L43.0687 257.938H45.0844L40.9672 269.312H39.35L35.2484 257.938H37.2641ZM36.1781 257.938L36.5375 266.219V269.312H34.1703V257.938H36.1781ZM46.1547 257.938V269.312H43.7875V266.219L44.1469 257.938H46.1547ZM50.5484 269.312H48.0328L52.275 257.938H53.8531L53.65 259.984L50.5484 269.312ZM53.0875 259.984L52.8609 257.938H54.4547L58.7125 269.312H56.2047L53.0875 259.984ZM56.1109 266.977H50.0484V265.07H56.1109V266.977ZM64.6687 261.844L66.7859 257.938H69.4969L66.1922 263.578L69.5828 269.312H66.8406L64.6687 265.336L62.4969 269.312H59.7547L63.1453 263.578L59.8328 257.938H62.5516L64.6687 261.844ZM73.1328 265.305V263.398H76.0078C76.4557 263.398 76.8177 263.326 77.0938 263.18C77.3698 263.034 77.5729 262.836 77.7031 262.586C77.8333 262.331 77.8984 262.039 77.8984 261.711C77.8984 261.388 77.8333 261.086 77.7031 260.805C77.5729 260.518 77.3698 260.289 77.0938 260.117C76.8177 259.94 76.4557 259.852 76.0078 259.852H73.9297V269.312H71.5547V257.938H76.0078C76.9036 257.938 77.6719 258.102 78.3125 258.43C78.9531 258.753 79.4427 259.198 79.7812 259.766C80.1198 260.328 80.2891 260.971 80.2891 261.695C80.2891 262.43 80.1198 263.068 79.7812 263.609C79.4427 264.151 78.9531 264.57 78.3125 264.867C77.6719 265.159 76.9036 265.305 76.0078 265.305H73.1328ZM91.3078 257.938V265.438C91.3078 266.318 91.1177 267.057 90.7375 267.656C90.3625 268.255 89.8469 268.708 89.1906 269.016C88.5344 269.318 87.787 269.469 86.9484 269.469C86.0995 269.469 85.3443 269.318 84.6828 269.016C84.0266 268.708 83.5109 268.255 83.1359 267.656C82.7609 267.057 82.5734 266.318 82.5734 265.438V257.938H84.9406V265.438C84.9406 265.932 85.0214 266.339 85.1828 266.656C85.3443 266.969 85.5734 267.198 85.8703 267.344C86.1724 267.49 86.5318 267.562 86.9484 267.562C87.3703 267.562 87.7297 267.49 88.0266 267.344C88.3234 267.198 88.55 266.969 88.7062 266.656C88.8625 266.339 88.9406 265.932 88.9406 265.438V257.938H91.3078ZM97.1078 257.938L100.006 266.164L102.912 257.938H104.928L100.811 269.312H99.1937L95.0922 257.938H97.1078ZM96.0219 257.938L96.3812 266.219V269.312H94.0141V257.938H96.0219ZM105.998 257.938V269.312H103.631V266.219L103.991 257.938H105.998ZM110.408 265.305V263.398H113.283C113.731 263.398 114.093 263.326 114.369 263.18C114.645 263.034 114.848 262.836 114.978 262.586C115.108 262.331 115.173 262.039 115.173 261.711C115.173 261.388 115.108 261.086 114.978 260.805C114.848 260.518 114.645 260.289 114.369 260.117C114.093 259.94 113.731 259.852 113.283 259.852H111.205V269.312H108.83V257.938H113.283C114.179 257.938 114.947 258.102 115.588 258.43C116.228 258.753 116.718 259.198 117.056 259.766C117.395 260.328 117.564 260.971 117.564 261.695C117.564 262.43 117.395 263.068 117.056 263.609C116.718 264.151 116.228 264.57 115.588 264.867C114.947 265.159 114.179 265.305 113.283 265.305H110.408Z" fill="white"/>
<g clip-path="url(#clip0_5_65)">
<path d="M0.697445 177.113C0.708079 177.168 0.724848 177.222 0.747437 177.273C0.757436 177.303 0.767435 177.343 0.777433 177.373L12.1858 197.13L12.2158 197.16C12.2358 197.19 12.2557 197.22 12.2857 197.26C12.3243 197.302 12.368 197.339 12.4157 197.37C12.4457 197.39 12.4657 197.42 12.4957 197.44C12.5074 197.448 12.5216 197.452 12.5357 197.45C12.6489 197.514 12.776 197.548 12.9057 197.55H58.039L69.2074 216.887L69.2374 216.917C69.2574 216.947 69.2774 216.977 69.3074 217.017C69.346 217.059 69.3896 217.096 69.4374 217.127C69.4674 217.147 69.4873 217.177 69.5173 217.197C69.5291 217.205 69.5432 217.209 69.5573 217.207C69.6705 217.271 69.7976 217.305 69.9273 217.307H138.367C138.5 217.305 138.63 217.271 138.747 217.207L138.837 217.147C138.922 217.091 138.997 217.02 139.057 216.937C139.067 216.917 139.097 216.907 139.107 216.887L150.515 197.13C150.525 197.11 150.525 197.1 150.535 197.08C150.553 197.049 150.566 197.015 150.575 196.98C150.585 196.94 150.595 196.91 150.605 196.87C150.614 196.834 150.617 196.797 150.615 196.76C150.615 196.74 150.625 196.73 150.625 196.71C150.625 196.69 150.615 196.68 150.615 196.66C150.615 196.62 150.605 196.59 150.605 196.55C150.605 196.51 150.585 196.48 150.575 196.44C150.564 196.406 150.55 196.373 150.535 196.34C150.525 196.32 150.525 196.31 150.515 196.29L127.949 157.206L139.107 137.869C139.117 137.849 139.117 137.839 139.127 137.819C139.145 137.788 139.158 137.754 139.167 137.719C139.177 137.679 139.187 137.649 139.197 137.609C139.205 137.573 139.209 137.536 139.207 137.499C139.207 137.479 139.217 137.469 139.217 137.449C139.217 137.429 139.207 137.419 139.207 137.399C139.207 137.359 139.197 137.329 139.197 137.289C139.197 137.249 139.177 137.219 139.167 137.179C139.156 137.145 139.142 137.112 139.127 137.079C139.117 137.059 139.117 137.049 139.107 137.029L104.902 77.7478C104.882 77.7178 104.852 77.6978 104.832 77.6678C104.798 77.6224 104.761 77.579 104.722 77.5378C104.681 77.5045 104.638 77.4744 104.592 77.4479C104.549 77.4186 104.502 77.3951 104.452 77.3779C104.394 77.3587 104.333 77.3453 104.272 77.3379C104.242 77.3379 104.212 77.3179 104.172 77.3179H81.3556C81.3356 77.3179 81.3256 77.3279 81.3056 77.3279C81.2656 77.3279 81.2356 77.3379 81.1956 77.3379L81.0757 77.3679C81.0457 77.3779 81.0057 77.3979 80.9757 77.4079C80.9457 77.4179 80.9457 77.4179 80.9257 77.4279C80.9143 77.4402 80.9007 77.4504 80.8857 77.4579C80.8533 77.478 80.8232 77.5015 80.7957 77.5278C80.7666 77.5519 80.7398 77.5787 80.7157 77.6078C80.6957 77.6378 80.6657 77.6678 80.6457 77.6978C80.6334 77.7092 80.6232 77.7228 80.6157 77.7378L58.049 116.832H35.7323C35.7123 116.832 35.7023 116.842 35.6823 116.842C35.6423 116.842 35.6123 116.852 35.5723 116.852C35.5323 116.852 35.4923 116.872 35.4623 116.882C35.4283 116.894 35.395 116.907 35.3624 116.922C35.3424 116.932 35.3324 116.932 35.3124 116.942C35.2924 116.952 35.2924 116.962 35.2724 116.972C35.24 116.992 35.2099 117.016 35.1824 117.042C35.1533 117.066 35.1265 117.093 35.1024 117.122C35.0824 117.152 35.0524 117.182 35.0324 117.212C35.0201 117.223 35.0099 117.237 35.0024 117.252L0.787432 176.533C0.772892 176.565 0.762799 176.599 0.757436 176.633C0.736247 176.685 0.719522 176.739 0.707443 176.793C0.691572 176.845 0.684806 176.899 0.687446 176.953C0.685791 177.007 0.689138 177.06 0.697445 177.113ZM103.682 79.0176L136.927 136.599H116.071L82.8154 79.0176H103.682ZM115.091 176.113H94.2237L116.061 138.279H136.927L115.091 176.113ZM81.3556 79.8575L114.601 137.439L92.7639 175.273L82.3355 157.196L93.5038 137.859C93.5138 137.839 93.5138 137.829 93.5238 137.809C93.5414 137.778 93.5548 137.744 93.5638 137.709C93.5738 137.669 93.5838 137.639 93.5938 137.599C93.6021 137.563 93.6055 137.526 93.6038 137.489C93.6038 137.469 93.6138 137.459 93.6138 137.439C93.6138 137.419 93.6038 137.409 93.6038 137.389C93.6038 137.349 93.5938 137.319 93.5938 137.279C93.5938 137.239 93.5738 137.209 93.5638 137.169C93.5522 137.135 93.5389 137.102 93.5238 137.069C93.5138 137.049 93.5138 137.039 93.5038 137.019L82.0855 117.262C82.0655 117.232 82.0355 117.212 82.0155 117.182C81.9813 117.137 81.9446 117.093 81.9055 117.052C81.8646 117.019 81.8211 116.989 81.7755 116.962C81.731 116.935 81.6841 116.911 81.6356 116.892C81.581 116.872 81.5235 116.862 81.4656 116.862C81.4356 116.862 81.3956 116.842 81.3656 116.842H60.0087L81.3556 79.8575ZM58.549 118.532H80.8757L91.3141 136.599H47.6306L37.1921 118.532H58.549ZM35.7323 119.372L46.1608 137.439L12.9157 195.021L2.48718 176.953L35.7323 119.372ZM14.3854 195.86L47.6306 138.279H91.3141L80.8757 156.356H58.549C58.529 156.356 58.519 156.366 58.499 156.366C58.459 156.366 58.429 156.376 58.389 156.376L58.269 156.406C58.239 156.416 58.199 156.436 58.169 156.446C58.139 156.456 58.139 156.456 58.119 156.466C58.1076 156.479 58.0941 156.489 58.079 156.496C58.0467 156.516 58.0165 156.54 57.989 156.566C57.9599 156.59 57.9331 156.617 57.909 156.646C57.889 156.676 57.8591 156.706 57.8391 156.736C57.8291 156.746 57.8091 156.756 57.8091 156.776L46.4007 176.533C46.3862 176.565 46.3761 176.599 46.3707 176.633C46.3496 176.685 46.3328 176.739 46.3207 176.793C46.3121 176.846 46.3088 176.9 46.3108 176.953C46.3091 177.007 46.3124 177.06 46.3207 177.113C46.3314 177.168 46.3481 177.222 46.3707 177.273C46.3807 177.303 46.3907 177.343 46.4007 177.373L57.0792 195.86H14.3854ZM137.907 215.618H71.4171L81.8455 197.55H148.336L137.907 215.618ZM69.9573 214.778L48.1205 176.953L58.559 158.876L80.3958 196.7L69.9573 214.778ZM148.336 195.86H81.8455L60.0087 158.036H80.8757L92.044 177.373L92.074 177.403C92.0939 177.439 92.1174 177.472 92.144 177.503C92.1826 177.545 92.2263 177.582 92.274 177.613C92.304 177.633 92.324 177.663 92.354 177.683C92.3657 177.691 92.3799 177.695 92.394 177.693C92.5072 177.756 92.6343 177.791 92.7639 177.793H115.581C115.713 177.791 115.844 177.757 115.961 177.693L116.051 177.633C116.135 177.576 116.21 177.505 116.27 177.423C116.28 177.403 116.31 177.393 116.32 177.373L126.999 158.876L148.336 195.86Z" fill="white"/>
</g>
<g clip-path="url(#clip1_5_65)">
<path d="M211.513 81.8121L227.964 65.3608H176.213L228.117 13.4569L216.48 1.82007L164.585 53.7239V1.97305L148.125 18.4324V81.8121H211.513Z" stroke="#707070" stroke-width="0.999901"/>
</g>
<defs>
<clipPath id="clip0_5_65">
<rect width="149.938" height="140" fill="white" transform="translate(0.6875 77.3125)"/>
</clipPath>
<clipPath id="clip1_5_65">
<rect width="81.5469" height="81.5469" fill="white" transform="translate(147.625 0.765625)"/>
</clipPath>
</defs>
</svg>
