<svg width="220" height="279" viewBox="0 0 220 279" fill="none" xmlns="http://www.w3.org/2000/svg">
<path d="M29.6531 269.312H27.1375L31.3797 257.938H32.9578L32.7547 259.984L29.6531 269.312ZM32.1922 259.984L31.9656 257.938H33.5594L37.8172 269.312H35.3094L32.1922 259.984ZM35.2156 266.977H29.1531V265.07H35.2156V266.977ZM43.9297 257.938C44.8047 257.938 45.5547 258.07 46.1797 258.336C46.8099 258.596 47.2943 258.982 47.6328 259.492C47.9714 259.997 48.1406 260.625 48.1406 261.375C48.1406 261.99 48.0365 262.516 47.8281 262.953C47.625 263.385 47.3359 263.747 46.9609 264.039C46.5911 264.326 46.1536 264.557 45.6484 264.734L44.8984 265.148H41.2656V263.242H43.9297C44.3359 263.242 44.6745 263.172 44.9453 263.031C45.2214 262.891 45.4271 262.695 45.5625 262.445C45.7031 262.19 45.7734 261.893 45.7734 261.555C45.7734 261.029 45.6224 260.615 45.3203 260.312C45.0182 260.005 44.5547 259.852 43.9297 259.852H42.0625V269.312H39.6953V257.938H43.9297ZM43.4453 264.234H45.9453L48.5625 269.203V269.312H46.0313L43.4453 264.234ZM60.0656 263.875C60.0656 265.036 59.8625 266.034 59.4563 266.867C59.05 267.701 58.4823 268.344 57.7531 268.797C57.0292 269.245 56.188 269.469 55.2297 269.469C54.2818 269.469 53.4406 269.245 52.7063 268.797C51.9771 268.344 51.4042 267.701 50.9875 266.867C50.576 266.034 50.3703 265.036 50.3703 263.875V263.383C50.3703 262.221 50.576 261.224 50.9875 260.391C51.399 259.552 51.9693 258.909 52.6984 258.461C53.4276 258.008 54.2661 257.781 55.2141 257.781C56.1724 257.781 57.0161 258.008 57.7453 258.461C58.4745 258.909 59.0422 259.552 59.4484 260.391C59.8599 261.224 60.0656 262.221 60.0656 263.383V263.875ZM57.6828 263.367C57.6828 262.576 57.5865 261.909 57.3938 261.367C57.201 260.826 56.9198 260.417 56.55 260.141C56.1802 259.865 55.7349 259.727 55.2141 259.727C54.6932 259.727 54.2505 259.865 53.8859 260.141C53.5214 260.417 53.2427 260.826 53.05 261.367C52.8573 261.909 52.7609 262.576 52.7609 263.367V263.875C52.7609 264.661 52.8573 265.328 53.05 265.875C53.2479 266.417 53.5292 266.828 53.8938 267.109C54.2635 267.391 54.7089 267.531 55.2297 267.531C55.7557 267.531 56.201 267.391 56.5656 267.109C56.9302 266.828 57.2063 266.417 57.3938 265.875C57.5865 265.328 57.6828 264.661 57.6828 263.875V263.367ZM71.8344 269.312H69.475L64.9359 261.844V269.312H62.5688V257.938H64.9359L69.4828 265.414V257.938H71.8344V269.312ZM88.4813 267.875C88.3042 268.083 88.0333 268.312 87.6688 268.562C87.3042 268.812 86.8302 269.026 86.2469 269.203C85.6688 269.38 84.963 269.469 84.1297 269.469C83.1453 269.469 82.2833 269.255 81.5438 268.828C80.8042 268.396 80.226 267.771 79.8094 266.953C79.3979 266.13 79.1922 265.133 79.1922 263.961V263.297C79.1922 262.12 79.3875 261.122 79.7781 260.305C80.174 259.482 80.7286 258.854 81.4422 258.422C82.1609 257.99 83.0021 257.773 83.9656 257.773C84.95 257.773 85.7599 257.935 86.3953 258.258C87.0307 258.581 87.5151 259.029 87.8484 259.602C88.187 260.169 88.3979 260.82 88.4813 261.555H86.1844C86.1271 261.174 86.0177 260.844 85.8563 260.562C85.6948 260.281 85.4656 260.065 85.1688 259.914C84.8771 259.758 84.4969 259.68 84.0281 259.68C83.4969 259.68 83.049 259.815 82.6844 260.086C82.325 260.357 82.0516 260.76 81.8641 261.297C81.6766 261.828 81.5828 262.49 81.5828 263.281V263.961C81.5828 264.747 81.6844 265.409 81.8875 265.945C82.0958 266.482 82.3979 266.885 82.7938 267.156C83.1896 267.427 83.6766 267.562 84.2547 267.562C84.6297 267.562 84.9396 267.534 85.1844 267.477C85.4292 267.414 85.6245 267.341 85.7703 267.258C85.9214 267.174 86.0385 267.091 86.1219 267.008V265.055H84.0047V263.328H88.4813V267.875ZM95.1094 263.047L97.4609 257.938H100.039L96.3125 265.188V269.312H93.9141V265.188L90.1797 257.938H92.7656L95.1094 263.047ZM104.972 257.938L107.87 266.164L110.777 257.938H112.792L108.675 269.312H107.058L102.956 257.938H104.972ZM103.886 257.938L104.245 266.219V269.312H101.878V257.938H103.886ZM113.863 257.938V269.312H111.495V266.219L111.855 257.938H113.863Z" fill="white"/>
<g clip-path="url(#clip0_5_74)">
<path d="M1.02006 194.783C1.0322 194.834 1.04891 194.885 1.07003 194.933C1.07547 194.964 1.08558 194.995 1.10002 195.023L8.37788 207.64L8.40787 207.67C8.42801 207.703 8.45147 207.733 8.47785 207.76C8.51784 207.8 8.55782 207.83 8.59781 207.87C8.6278 207.89 8.63781 207.92 8.6678 207.93C8.67953 207.938 8.69367 207.942 8.70777 207.94C8.81632 207.996 8.93582 208.027 9.05767 208.03H132.891C133.013 208.027 133.133 207.996 133.241 207.94C133.271 207.92 133.291 207.9 133.321 207.88C133.402 207.83 133.47 207.761 133.521 207.68C133.531 207.66 133.551 207.65 133.571 207.63L140.859 195.013C140.869 195.003 140.869 194.983 140.879 194.973C140.898 194.942 140.912 194.908 140.919 194.873C140.929 194.843 140.939 194.803 140.949 194.773C140.957 194.74 140.96 194.707 140.959 194.673C140.959 194.653 140.969 194.643 140.969 194.623C140.969 194.603 140.959 194.593 140.959 194.573C140.959 194.553 140.949 194.503 140.949 194.473C140.949 194.443 140.929 194.403 140.919 194.373C140.908 194.339 140.895 194.305 140.879 194.273C140.869 194.263 140.869 194.243 140.859 194.233L78.9471 86.9844C78.9296 86.959 78.9095 86.9356 78.8871 86.9144C78.8558 86.8698 78.8189 86.8295 78.7771 86.7944C78.6987 86.7367 78.6151 86.6865 78.5272 86.6445C78.4751 86.6288 78.4215 86.6187 78.3673 86.6145C78.3373 86.6145 78.3073 86.5945 78.2673 86.5945H63.7016C63.6816 86.5945 63.6716 86.6045 63.6516 86.6045C63.6316 86.6045 63.5816 86.6145 63.5516 86.6145L63.4416 86.6445C63.4073 86.6552 63.3739 86.6685 63.3417 86.6845C63.33 86.6924 63.3158 86.696 63.3017 86.6945C63.2903 86.7068 63.2767 86.717 63.2617 86.7245C63.2333 86.742 63.2065 86.7621 63.1817 86.7844C63.1526 86.8085 63.1258 86.8353 63.1017 86.8644C63.0817 86.8944 63.0618 86.9144 63.0418 86.9444C63.0294 86.9558 63.0193 86.9694 63.0118 86.9844L1.09001 194.243C1.07558 194.271 1.06547 194.302 1.06003 194.333C1.03889 194.381 1.02218 194.432 1.01005 194.483C1.00175 194.533 0.998387 194.583 1.00005 194.633C1.01004 194.683 1.01006 194.733 1.02006 194.783ZM77.8174 88.1642L138.829 193.843H32.2808L38.659 182.805H118.345C118.469 182.804 118.59 182.77 118.695 182.705C118.705 182.695 118.725 182.705 118.735 182.695C118.761 182.678 118.784 182.658 118.805 182.635C118.848 182.601 118.888 182.565 118.925 182.525C118.955 182.488 118.982 182.448 119.005 182.405C119.035 182.367 119.056 182.323 119.065 182.275C119.086 182.225 119.096 182.17 119.095 182.115C119.095 182.085 119.115 182.055 119.115 182.015C119.115 181.995 119.105 181.985 119.105 181.965C119.1 181.915 119.09 181.864 119.075 181.816C119.063 181.764 119.046 181.714 119.025 181.666C119.015 181.656 119.015 181.636 119.005 181.626L65.0512 88.1642H77.8174ZM132.451 206.461H10.4273L63.7016 114.179L70.0797 125.217L30.2314 194.233C30.2235 194.245 30.2199 194.259 30.2214 194.273C30.2003 194.321 30.1836 194.372 30.1714 194.423C30.1567 194.472 30.1466 194.522 30.1415 194.573C30.1415 194.593 30.1315 194.603 30.1315 194.623C30.1315 194.643 30.1515 194.683 30.1515 194.723C30.1566 194.777 30.1666 194.831 30.1814 194.883C30.2014 194.933 30.2214 194.973 30.2414 195.013C30.2658 195.054 30.2925 195.094 30.3214 195.133C30.3614 195.173 30.4014 195.203 30.4414 195.243C30.4714 195.263 30.4814 195.293 30.5114 195.303C30.5214 195.313 30.5413 195.303 30.5513 195.313C30.6592 195.372 30.7787 195.406 30.9012 195.413H138.809L132.451 206.461ZM102.41 181.236H39.5587L70.9894 126.796L102.41 181.236ZM63.7016 88.954L116.976 181.236H104.23L64.3914 112.219C64.379 112.208 64.3689 112.194 64.3614 112.179C64.3314 112.139 64.2914 112.099 64.2614 112.059C64.2261 112.021 64.1857 111.987 64.1414 111.959C64.1301 111.947 64.1165 111.937 64.1014 111.929C64.0731 111.915 64.0428 111.905 64.0115 111.899C63.9631 111.878 63.9129 111.862 63.8615 111.849C63.762 111.836 63.6612 111.836 63.5616 111.849C63.5102 111.862 63.46 111.878 63.4116 111.899C63.3803 111.905 63.35 111.915 63.3217 111.929C63.3103 111.942 63.2968 111.952 63.2817 111.959C63.2417 111.989 63.2017 112.029 63.1617 112.059C63.1204 112.092 63.0864 112.133 63.0618 112.179C63.0494 112.191 63.0393 112.204 63.0318 112.219L9.07768 205.681L2.69956 194.643L63.7016 88.954Z" fill="white"/>
</g>
<g clip-path="url(#clip1_5_74)">
<path d="M201.856 81.8121L218.308 65.3608H166.557L218.461 13.4569L206.824 1.82007L154.929 53.7239V1.97305L138.469 18.4324V81.8121H201.856Z" stroke="#707070" stroke-width="0.999901"/>
</g>
<defs>
<clipPath id="clip0_5_74">
<rect width="139.969" height="121.438" fill="white" transform="translate(1 86.5938)"/>
</clipPath>
<clipPath id="clip1_5_74">
<rect width="81.5469" height="81.5469" fill="white" transform="translate(137.969 0.765625)"/>
</clipPath>
</defs>
</svg>
