<svg width="201" height="279" viewBox="0 0 201 279" fill="none" xmlns="http://www.w3.org/2000/svg">
<path d="M20.0094 269.312H17.6344V257.938H20.0094V269.312ZM24.4938 264.672H19.3844V262.766H24.4938V264.672ZM25.0563 259.852H19.3844V257.938H25.0563V259.852ZM29.7156 269.312H27.3563V257.938H29.7156V269.312ZM37.7891 269.312H35.4297V257.938H37.7891V269.312ZM41.2656 259.852H32V257.938H41.2656V259.852ZM51.725 261.82C52.0479 261.607 52.2615 261.404 52.3656 261.211C52.475 261.018 52.5297 260.805 52.5297 260.57C52.5297 260.336 52.4411 260.117 52.2641 259.914C52.087 259.706 51.8344 259.602 51.5063 259.602C51.1521 259.602 50.8865 259.714 50.7094 259.938C50.5323 260.161 50.4438 260.43 50.4438 260.742C50.4438 261.091 50.5792 261.453 50.85 261.828C51.1208 262.198 51.4542 262.615 51.85 263.078L57.2016 269.312H54.6234L50.2719 264.289C49.7146 263.602 49.2641 262.99 48.9203 262.453C48.5766 261.911 48.4047 261.352 48.4047 260.773C48.4047 260.169 48.5323 259.643 48.7875 259.195C49.0479 258.747 49.4099 258.398 49.8734 258.148C50.3422 257.898 50.8891 257.773 51.5141 257.773C52.1078 257.773 52.6208 257.896 53.0531 258.141C53.4906 258.385 53.8266 258.708 54.0609 259.109C54.3005 259.51 54.4203 259.951 54.4203 260.43C54.4203 260.784 54.3552 261.112 54.225 261.414C54.1 261.716 53.9229 261.995 53.6938 262.25C53.4646 262.5 53.199 262.732 52.8969 262.945L50.3969 264.734C50.2042 264.896 50.0583 265.057 49.9594 265.219C49.8604 265.38 49.7927 265.536 49.7563 265.688C49.725 265.833 49.7094 265.974 49.7094 266.109C49.7094 266.406 49.7719 266.672 49.8969 266.906C50.0271 267.135 50.2094 267.318 50.4438 267.453C50.6781 267.583 50.9516 267.648 51.2641 267.648C51.6859 267.648 52.0922 267.555 52.4828 267.367C52.8786 267.174 53.2328 266.904 53.5453 266.555C53.863 266.206 54.1156 265.794 54.3031 265.32C54.4906 264.841 54.5844 264.31 54.5844 263.727H56.5219C56.5219 264.612 56.3891 265.43 56.1234 266.18C55.8578 266.93 55.4099 267.562 54.7797 268.078C54.7432 268.104 54.6964 268.143 54.6391 268.195C54.5818 268.242 54.5375 268.279 54.5063 268.305C54.0115 268.701 53.4906 268.995 52.9438 269.188C52.4021 269.38 51.8031 269.477 51.1469 269.477C50.3813 269.477 49.7198 269.339 49.1625 269.062C48.6104 268.786 48.1833 268.406 47.8813 267.922C47.5792 267.432 47.4281 266.875 47.4281 266.25C47.4281 265.797 47.5193 265.401 47.7016 265.062C47.8839 264.719 48.1365 264.401 48.4594 264.109C48.7823 263.818 49.1521 263.526 49.5688 263.234L51.725 261.82ZM68.7859 269.312H66.4266V257.938H68.7859V269.312ZM72.2625 259.852H62.9969V257.938H72.2625V259.852ZM83.4062 263.875C83.4062 265.036 83.2031 266.034 82.7969 266.867C82.3906 267.701 81.8229 268.344 81.0938 268.797C80.3698 269.245 79.5286 269.469 78.5703 269.469C77.6224 269.469 76.7812 269.245 76.0469 268.797C75.3177 268.344 74.7448 267.701 74.3281 266.867C73.9167 266.034 73.7109 265.036 73.7109 263.875V263.383C73.7109 262.221 73.9167 261.224 74.3281 260.391C74.7396 259.552 75.3099 258.909 76.0391 258.461C76.7682 258.008 77.6068 257.781 78.5547 257.781C79.513 257.781 80.3568 258.008 81.0859 258.461C81.8151 258.909 82.3828 259.552 82.7891 260.391C83.2005 261.224 83.4062 262.221 83.4062 263.383V263.875ZM81.0234 263.367C81.0234 262.576 80.9271 261.909 80.7344 261.367C80.5417 260.826 80.2604 260.417 79.8906 260.141C79.5208 259.865 79.0755 259.727 78.5547 259.727C78.0339 259.727 77.5911 259.865 77.2266 260.141C76.862 260.417 76.5833 260.826 76.3906 261.367C76.1979 261.909 76.1016 262.576 76.1016 263.367V263.875C76.1016 264.661 76.1979 265.328 76.3906 265.875C76.5885 266.417 76.8698 266.828 77.2344 267.109C77.6042 267.391 78.0495 267.531 78.5703 267.531C79.0964 267.531 79.5417 267.391 79.9062 267.109C80.2708 266.828 80.5469 266.417 80.7344 265.875C80.9271 265.328 81.0234 264.661 81.0234 263.875V263.367ZM95.175 269.312H92.8156L88.2766 261.844V269.312H85.9094V257.938H88.2766L92.8234 265.414V257.938H95.175V269.312ZM105.662 269.312H99.6547V267.406H105.662V269.312ZM100.397 269.312H98.0219V257.938H100.397V269.312ZM104.873 264.391H99.6547V262.539H104.873V264.391ZM105.639 259.852H99.6547V257.938H105.639V259.852Z" fill="white"/>
<g clip-path="url(#clip0_5_83)">
<path d="M121.922 112.323L101.226 100.375L82.0189 111.463V89.2767L61.3126 77.3286L40.6162 89.2767V111.453L21.4095 100.365L0.703125 112.323V136.229L19.9098 147.318L0.703125 158.406V182.312L21.3995 194.26L40.6062 183.172V205.348L61.3026 217.296L81.9989 205.348V183.172L101.206 194.26L121.922 182.312V158.406L102.715 147.318L121.922 136.229V112.323ZM101.226 102.095L119.692 112.753L82.1389 134.5L82.0189 113.183L101.226 102.095ZM80.5292 114.043L80.6491 135.369L62.0624 146.138V101.665L80.5292 91.0064V114.043ZM42.1059 91.0064L60.5627 101.665V146.138L42.1059 135.449V91.0064ZM21.3995 102.095L40.6062 113.183V134.57L2.94278 112.753L21.3995 102.095ZM2.19292 135.369V114.053L39.8663 135.869L21.4095 146.458L2.19292 135.369ZM2.19292 181.452V160.135L20.6496 170.794V192.11L2.19292 181.452ZM2.94278 158.836L21.7794 147.967L41.366 136.729L59.8228 147.418L21.4095 169.494L2.94278 158.836ZM60.5627 215.147L42.1059 204.488V182.312L60.5627 171.654V215.147ZM42.1059 180.592L40.9861 181.242L22.1494 192.12V170.804L60.5627 148.727V169.934L42.1059 180.592ZM61.3126 100.375L42.8558 89.7167L61.3126 79.0583L79.7693 89.7167L61.3126 100.375ZM80.5191 204.488L62.0624 215.147V171.654L80.5191 182.312V204.488ZM100.476 192.11L81.639 181.232L80.5191 180.582L62.0624 169.924V148.717L100.476 170.794V192.11ZM120.432 181.452L101.975 192.11V170.614L120.432 160.125V181.452ZM119.672 158.836L101.066 169.414L62.8023 147.428L81.389 136.659L99.7358 147.318L100.356 147.677L100.726 147.897L100.846 147.967L119.672 158.836ZM120.432 135.369L101.226 146.458L82.8887 135.799L120.442 114.053V135.369H120.432Z" fill="white"/>
</g>
<g clip-path="url(#clip1_5_83)">
<path d="M182.81 81.8121L199.261 65.3608H147.51L199.414 13.4569L187.777 1.82007L135.882 53.7239V1.97305L119.422 18.4324V81.8121H182.81Z" stroke="#707070" stroke-width="0.999901"/>
</g>
<defs>
<clipPath id="clip0_5_83">
<rect width="121.219" height="139.969" fill="white" transform="translate(0.703125 77.3281)"/>
</clipPath>
<clipPath id="clip1_5_83">
<rect width="81.5469" height="81.5469" fill="white" transform="translate(118.922 0.765625)"/>
</clipPath>
</defs>
</svg>
