<svg width="220" height="279" viewBox="0 0 220 279" fill="none" xmlns="http://www.w3.org/2000/svg">
<path d="M47.0875 269.312H44.7125V257.938H47.0875V269.312ZM51.5719 264.672H46.4625V262.766H51.5719V264.672ZM52.1344 259.852H46.4625V257.938H52.1344V259.852ZM63.6375 263.875C63.6375 265.036 63.4344 266.034 63.0281 266.867C62.6219 267.701 62.0542 268.344 61.325 268.797C60.601 269.245 59.7599 269.469 58.8016 269.469C57.8536 269.469 57.0125 269.245 56.2781 268.797C55.549 268.344 54.976 267.701 54.5594 266.867C54.1479 266.034 53.9422 265.036 53.9422 263.875V263.383C53.9422 262.221 54.1479 261.224 54.5594 260.391C54.9708 259.552 55.5411 258.909 56.2703 258.461C56.9995 258.008 57.838 257.781 58.7859 257.781C59.7443 257.781 60.588 258.008 61.3172 258.461C62.0464 258.909 62.6141 259.552 63.0203 260.391C63.4318 261.224 63.6375 262.221 63.6375 263.383V263.875ZM61.2547 263.367C61.2547 262.576 61.1583 261.909 60.9656 261.367C60.7729 260.826 60.4917 260.417 60.1219 260.141C59.7521 259.865 59.3068 259.727 58.7859 259.727C58.2651 259.727 57.8224 259.865 57.4578 260.141C57.0932 260.417 56.8146 260.826 56.6219 261.367C56.4292 261.909 56.3328 262.576 56.3328 263.367V263.875C56.3328 264.661 56.4292 265.328 56.6219 265.875C56.8198 266.417 57.101 266.828 57.4656 267.109C57.8354 267.391 58.2807 267.531 58.8016 267.531C59.3276 267.531 59.7729 267.391 60.1375 267.109C60.5021 266.828 60.7781 266.417 60.9656 265.875C61.1583 265.328 61.2547 264.661 61.2547 263.875V263.367ZM70.3828 257.938C71.2578 257.938 72.0078 258.07 72.6328 258.336C73.263 258.596 73.7474 258.982 74.0859 259.492C74.4245 259.997 74.5938 260.625 74.5938 261.375C74.5938 261.99 74.4896 262.516 74.2812 262.953C74.0781 263.385 73.7891 263.747 73.4141 264.039C73.0443 264.326 72.6068 264.557 72.1016 264.734L71.3516 265.148H67.7188V263.242H70.3828C70.7891 263.242 71.1276 263.172 71.3984 263.031C71.6745 262.891 71.8802 262.695 72.0156 262.445C72.1562 262.19 72.2266 261.893 72.2266 261.555C72.2266 261.029 72.0755 260.615 71.7734 260.312C71.4714 260.005 71.0078 259.852 70.3828 259.852H68.5156V269.312H66.1484V257.938H70.3828ZM69.8984 264.234H72.3984L75.0156 269.203V269.312H72.4844L69.8984 264.234ZM85.3938 269.312H77.3469V267.406H85.3938V269.312ZM78.3781 269.312H76.7297V267.93L83.6672 257.938H85.2688V259.289L78.3781 269.312ZM84.4484 259.852H76.7219V257.938H84.4484V259.852ZM89.35 269.312H86.8344L91.0766 257.938H92.6547L92.4516 259.984L89.35 269.312ZM91.8891 259.984L91.6625 257.938H93.2562L97.5141 269.312H95.0062L91.8891 259.984ZM94.9125 266.977H88.85V265.07H94.9125V266.977Z" fill="white"/>
<g clip-path="url(#clip0_5_93)">
<path d="M115.171 84.3813L88.9967 99.378L89.0466 138.419L52.6148 98.8681L25.9107 84.3913L0.65625 98.6682V179.86L26.1806 194.107L52.3748 179.61V172.952L87.9469 210.243L140.625 179.83V98.6682L115.171 84.3813ZM91.4461 102.177L116.111 116.324V167.793L91.4862 141.069L91.4461 102.177ZM3.10572 101.478L25.4608 114.385L87.0771 180.59L87.0971 205.784L25.0409 140.719V190.658L3.10572 178.431V101.478ZM49.9254 170.602V178.181L27.3704 190.658V146.778L50.0653 170.602H49.9254ZM138.296 178.441L89.5265 206.584L89.5066 179.64L26.9904 112.475L4.33543 99.398L25.9506 87.1707L51.125 100.818L118.56 174.011V114.915L92.6758 100.078L115.241 87.1607L138.296 100.078V178.441Z" fill="white"/>
</g>
<g clip-path="url(#clip1_5_93)">
<path d="M201.513 81.8121L217.964 65.3608H166.213L218.117 13.4569L206.48 1.82007L154.585 53.7239V1.97305L138.125 18.4324V81.8121H201.513Z" stroke="#707070" stroke-width="0.999901"/>
</g>
<defs>
<clipPath id="clip0_5_93">
<rect width="139.969" height="125.875" fill="white" transform="translate(0.65625 84.375)"/>
</clipPath>
<clipPath id="clip1_5_93">
<rect width="81.5469" height="81.5469" fill="white" transform="translate(137.625 0.765625)"/>
</clipPath>
</defs>
</svg>
