<svg width="230" height="279" viewBox="0 0 230 279" fill="none" xmlns="http://www.w3.org/2000/svg">
<path d="M3.32969 264.352V262.688H5.75938C6.38438 262.688 6.84792 262.568 7.15 262.328C7.45729 262.089 7.61094 261.742 7.61094 261.289C7.61094 260.779 7.4625 260.411 7.16563 260.188C6.86875 259.964 6.4 259.852 5.75938 259.852H4.13438V269.312H1.75938V257.938H5.75938C7.08229 257.938 8.11615 258.193 8.86094 258.703C9.60573 259.208 9.97813 259.992 9.97813 261.055C9.97813 261.518 9.86875 261.951 9.65 262.352C9.43646 262.753 9.10313 263.078 8.65 263.328C8.19688 263.573 7.60833 263.708 6.88438 263.734L6.2125 264.352H3.32969ZM2.66563 269.312L3.61094 267.406H6.11875C6.72292 267.406 7.16563 267.268 7.44688 266.992C7.72813 266.711 7.86875 266.359 7.86875 265.938C7.86875 265.609 7.81146 265.328 7.69688 265.094C7.5875 264.854 7.41042 264.672 7.16563 264.547C6.92604 264.417 6.60833 264.352 6.2125 264.352H3.94688V262.688H6.79844L7.3375 263.352C8.03021 263.336 8.5875 263.453 9.00938 263.703C9.43125 263.953 9.73854 264.279 9.93125 264.68C10.1292 265.081 10.2281 265.508 10.2281 265.961C10.2281 267.065 9.87136 267.901 9.15781 268.469C8.44948 269.031 7.43646 269.312 6.11875 269.312H2.66563ZM14.1219 269.312H11.6063L15.8484 257.938H17.4266L17.2234 259.984L14.1219 269.312ZM16.6609 259.984L16.4344 257.938H18.0281L22.2859 269.312H19.7781L16.6609 259.984ZM19.6844 266.977H13.6219V265.07H19.6844V266.977ZM31.4922 269.312H25.7891V267.406H31.4922V269.312ZM26.5234 269.312H24.1563V257.938H26.5234V269.312ZM35.3625 269.312H32.8469L37.0891 257.938H38.6672L38.4641 259.984L35.3625 269.312ZM37.9016 259.984L37.675 257.938H39.2688L43.5266 269.312H41.0188L37.9016 259.984ZM40.925 266.977H34.8625V265.07H40.925V266.977ZM54.6625 269.312H52.3031L47.7641 261.844V269.312H45.3969V257.938H47.7641L52.3109 265.414V257.938H54.6625V269.312ZM66.4625 265.523C66.4104 266.289 66.1995 266.969 65.8297 267.562C65.4599 268.156 64.9417 268.622 64.275 268.961C63.6135 269.299 62.8141 269.469 61.8766 269.469C60.9026 269.469 60.0641 269.247 59.3609 268.805C58.6578 268.357 58.1161 267.724 57.7359 266.906C57.3609 266.089 57.1734 265.12 57.1734 264V263.258C57.1734 262.133 57.3688 261.161 57.7594 260.344C58.15 259.526 58.6969 258.893 59.4 258.445C60.1083 257.997 60.9443 257.773 61.9078 257.773C62.8557 257.773 63.6552 257.948 64.3063 258.297C64.9573 258.646 65.4625 259.125 65.8219 259.734C66.1813 260.339 66.3974 261.029 66.4703 261.805H64.1109C64.0589 261.128 63.8714 260.609 63.5484 260.25C63.2255 259.891 62.6786 259.711 61.9078 259.711C61.3818 259.711 60.9469 259.839 60.6031 260.094C60.2594 260.349 60.0016 260.737 59.8297 261.258C59.6578 261.779 59.5719 262.44 59.5719 263.242V264C59.5719 264.781 59.6474 265.435 59.7984 265.961C59.9547 266.482 60.2021 266.875 60.5406 267.141C60.8792 267.406 61.3245 267.539 61.8766 267.539C62.3661 267.539 62.7672 267.464 63.0797 267.312C63.3974 267.161 63.637 266.938 63.7984 266.641C63.9651 266.339 64.0667 265.966 64.1031 265.523H66.4625ZM76.4344 269.312H70.4266V267.406H76.4344V269.312ZM71.1688 269.312H68.7938V257.938H71.1688V269.312ZM75.6453 264.391H70.4266V262.539H75.6453V264.391ZM76.4109 259.852H70.4266V257.938H76.4109V259.852ZM85.7531 269.312H83.3781V257.938H85.7531V269.312ZM90.2375 264.672H85.1281V262.766H90.2375V264.672ZM90.8 259.852H85.1281V257.938H90.8V259.852ZM95.4594 269.312H93.1V257.938H95.4594V269.312ZM103.533 269.312H101.173V257.938H103.533V269.312ZM107.009 259.852H97.7438V257.938H107.009V259.852ZM118.403 269.312H116.044L111.505 261.844V269.312H109.138V257.938H111.505L116.052 265.414V257.938H118.403V269.312ZM128.891 269.312H122.883V267.406H128.891V269.312ZM123.625 269.312H121.25V257.938H123.625V269.312ZM128.102 264.391H122.883V262.539H128.102V264.391ZM128.867 259.852H122.883V257.938H128.867V259.852ZM135.191 269.469C134.623 269.469 134.066 269.396 133.519 269.25C132.972 269.099 132.477 268.87 132.034 268.562C131.597 268.255 131.245 267.867 130.98 267.398C130.719 266.924 130.589 266.367 130.589 265.727H132.956C132.956 266.07 133.008 266.362 133.112 266.602C133.217 266.836 133.368 267.029 133.566 267.18C133.764 267.326 134.001 267.432 134.277 267.5C134.553 267.568 134.857 267.602 135.191 267.602C135.592 267.602 135.922 267.547 136.183 267.438C136.443 267.323 136.636 267.169 136.761 266.977C136.886 266.784 136.948 266.568 136.948 266.328C136.948 266.062 136.891 265.833 136.777 265.641C136.667 265.443 136.454 265.258 136.136 265.086C135.818 264.914 135.352 264.732 134.737 264.539C134.217 264.372 133.727 264.185 133.269 263.977C132.81 263.763 132.407 263.518 132.058 263.242C131.709 262.961 131.433 262.633 131.23 262.258C131.032 261.883 130.933 261.451 130.933 260.961C130.933 260.32 131.112 259.763 131.472 259.289C131.831 258.815 132.326 258.445 132.956 258.18C133.586 257.914 134.313 257.781 135.136 257.781C135.98 257.781 136.714 257.932 137.339 258.234C137.964 258.531 138.448 258.945 138.792 259.477C139.141 260.003 139.316 260.607 139.316 261.289H136.956C136.956 260.971 136.889 260.69 136.753 260.445C136.623 260.201 136.42 260.008 136.144 259.867C135.868 259.727 135.519 259.656 135.097 259.656C134.691 259.656 134.352 259.716 134.081 259.836C133.816 259.956 133.618 260.115 133.487 260.312C133.357 260.505 133.292 260.727 133.292 260.977C133.292 261.221 133.378 261.44 133.55 261.633C133.727 261.82 133.982 261.995 134.316 262.156C134.649 262.312 135.058 262.464 135.542 262.609C136.37 262.865 137.063 263.159 137.62 263.492C138.183 263.826 138.605 264.221 138.886 264.68C139.172 265.138 139.316 265.682 139.316 266.312C139.316 266.974 139.146 267.542 138.808 268.016C138.469 268.484 137.99 268.844 137.37 269.094C136.751 269.344 136.024 269.469 135.191 269.469ZM145.834 269.469C145.267 269.469 144.709 269.396 144.163 269.25C143.616 269.099 143.121 268.87 142.678 268.562C142.241 268.255 141.889 267.867 141.623 267.398C141.363 266.924 141.233 266.367 141.233 265.727H143.6C143.6 266.07 143.652 266.362 143.756 266.602C143.86 266.836 144.011 267.029 144.209 267.18C144.407 267.326 144.644 267.432 144.92 267.5C145.196 267.568 145.501 267.602 145.834 267.602C146.235 267.602 146.566 267.547 146.827 267.438C147.087 267.323 147.28 267.169 147.405 266.977C147.53 266.784 147.592 266.568 147.592 266.328C147.592 266.062 147.535 265.833 147.42 265.641C147.311 265.443 147.097 265.258 146.78 265.086C146.462 264.914 145.996 264.732 145.381 264.539C144.86 264.372 144.371 264.185 143.913 263.977C143.454 263.763 143.051 263.518 142.702 263.242C142.353 262.961 142.077 262.633 141.873 262.258C141.676 261.883 141.577 261.451 141.577 260.961C141.577 260.32 141.756 259.763 142.116 259.289C142.475 258.815 142.97 258.445 143.6 258.18C144.23 257.914 144.957 257.781 145.78 257.781C146.623 257.781 147.358 257.932 147.983 258.234C148.608 258.531 149.092 258.945 149.436 259.477C149.785 260.003 149.959 260.607 149.959 261.289H147.6C147.6 260.971 147.532 260.69 147.397 260.445C147.267 260.201 147.064 260.008 146.788 259.867C146.511 259.727 146.163 259.656 145.741 259.656C145.334 259.656 144.996 259.716 144.725 259.836C144.459 259.956 144.261 260.115 144.131 260.312C144.001 260.505 143.936 260.727 143.936 260.977C143.936 261.221 144.022 261.44 144.194 261.633C144.371 261.82 144.626 261.995 144.959 262.156C145.293 262.312 145.702 262.464 146.186 262.609C147.014 262.865 147.707 263.159 148.264 263.492C148.827 263.826 149.248 264.221 149.53 264.68C149.816 265.138 149.959 265.682 149.959 266.312C149.959 266.974 149.79 267.542 149.452 268.016C149.113 268.484 148.634 268.844 148.014 269.094C147.394 269.344 146.668 269.469 145.834 269.469Z" fill="white"/>
<g clip-path="url(#clip0_5_102)">
<path fill-rule="evenodd" clip-rule="evenodd" d="M144.249 126.134C139.653 111.616 130.451 98.992 118.036 90.1736C105.622 81.3551 90.6722 76.8229 75.451 77.2635C60.2298 77.704 45.5668 83.0933 33.6833 92.6149C21.7999 102.137 13.3435 115.272 9.59495 130.031C5.84644 144.79 7.01016 160.368 12.9098 174.407C18.8095 188.445 29.1237 200.178 42.29 207.828C55.4562 215.479 70.7571 218.63 85.8748 216.804C100.992 214.978 115.103 208.275 126.07 197.71H126.1L126.669 197.14C129.42 194.377 130.962 190.636 130.958 186.737C130.954 182.839 129.403 179.101 126.646 176.344C123.89 173.588 120.152 172.037 116.253 172.033C112.355 172.028 108.613 173.57 105.851 176.321V176.311C100.215 181.826 93.0943 185.579 85.3593 187.11C77.6243 188.641 69.6108 187.884 62.2993 184.932C54.9879 181.979 48.6957 176.959 44.1931 170.486C39.6904 164.013 37.1724 156.368 36.9473 148.486C36.7223 140.604 38.7999 132.827 42.9259 126.108C47.0519 119.388 53.0474 114.017 60.1785 110.652C67.3095 107.287 75.2668 106.074 83.0766 107.162C90.8864 108.249 98.2099 111.589 104.151 116.774L106.121 118.754C107.041 119.687 107.555 120.946 107.551 122.257C107.547 123.568 107.024 124.823 106.097 125.75C105.17 126.677 103.915 127.2 102.604 127.204C101.293 127.208 100.034 126.694 99.1009 125.774L96.3711 123.034L96.2711 123.134C96.2277 123.012 96.1556 122.902 96.061 122.814C91.4259 119.304 85.8904 117.18 80.097 116.689C74.3035 116.199 68.4898 117.361 63.3304 120.042C58.171 122.722 53.8776 126.811 50.9485 131.834C48.0193 136.856 46.5746 142.606 46.782 148.417C46.9894 154.227 48.8404 159.86 52.1201 164.661C55.3999 169.461 59.9738 173.234 65.3111 175.54C70.6485 177.846 76.5304 178.591 82.2741 177.688C88.0179 176.786 93.388 174.273 97.761 170.441C98.5844 169.521 99.0362 168.328 99.0288 167.094C99.0214 165.859 98.5553 164.672 97.721 163.762C95.7511 161.632 92.3812 162.192 90.7113 163.562C87.6667 166.038 83.9869 167.608 80.0924 168.092C76.1978 168.576 72.2457 167.954 68.6875 166.299C65.1294 164.643 62.1087 162.02 59.9706 158.729C57.8325 155.438 56.6633 151.612 56.5965 147.688C56.5297 143.765 57.5681 139.901 59.5929 136.539C61.6178 133.177 64.5474 130.453 68.0472 128.677C71.547 126.902 75.4757 126.146 79.3844 126.497C83.2931 126.849 87.0242 128.292 90.1514 130.663L90.1813 130.643L91.9513 132.413C94.7142 135.164 98.4553 136.706 102.354 136.702C106.253 136.697 109.99 135.147 112.747 132.39C115.504 129.633 117.054 125.896 117.059 121.997C117.063 118.098 115.521 114.357 112.77 111.594L112.55 111.374C112.516 111.217 112.44 111.072 112.33 110.954C105.167 104.1 96.1407 99.5119 86.3816 97.7652C76.6225 96.0186 66.5648 97.1909 57.4691 101.135C48.3734 105.08 40.644 111.621 35.2497 119.939C29.8553 128.258 27.036 137.983 27.1447 147.896C27.2535 157.81 30.2855 167.471 35.8611 175.669C41.4366 183.867 49.3077 190.237 58.4877 193.981C67.6678 197.725 77.7487 198.676 87.4671 196.716C97.1856 194.756 106.109 189.971 113.12 182.961C113.135 182.926 113.152 182.893 113.17 182.861C114.073 182.017 115.259 181.541 116.495 181.527C117.731 181.513 118.927 181.962 119.848 182.786C120.77 183.609 121.35 184.748 121.474 185.978C121.598 187.207 121.258 188.439 120.52 189.43C111.389 198.757 99.4715 204.862 86.5668 206.822C73.6621 208.782 60.4699 206.492 48.9809 200.297C37.4919 194.102 28.3293 184.339 22.8758 172.48C17.4223 160.621 15.9736 147.31 18.7485 134.556C21.5234 121.801 28.3713 110.295 38.2588 101.774C48.1463 93.2531 60.5371 88.1788 73.5613 87.3172C86.5856 86.4556 99.5367 89.8534 110.461 96.9979C121.384 104.142 129.688 114.646 134.119 126.924C134.849 128.953 136.559 131.913 140.049 131.693C140.724 131.693 141.39 131.535 141.994 131.234C142.598 130.933 143.124 130.496 143.531 129.957C143.938 129.419 144.214 128.793 144.339 128.13C144.463 127.466 144.432 126.783 144.249 126.134Z" stroke="white" stroke-width="1.9999" stroke-miterlimit="10" stroke-linecap="round" stroke-linejoin="round"/>
</g>
<g clip-path="url(#clip1_5_102)">
<path d="M212.2 81.8121L228.652 65.3608H176.901L228.805 13.4569L217.168 1.82007L165.273 53.7239V1.97305L148.812 18.4324V81.8121H212.2Z" stroke="#707070" stroke-width="0.999901"/>
</g>
<defs>
<clipPath id="clip0_5_102">
<rect width="138.922" height="142" fill="white" transform="translate(6.51562 76.3125)"/>
</clipPath>
<clipPath id="clip1_5_102">
<rect width="81.5469" height="81.5469" fill="white" transform="translate(148.312 0.765625)"/>
</clipPath>
</defs>
</svg>
