<svg width="219" height="279" viewBox="0 0 219 279" fill="none" xmlns="http://www.w3.org/2000/svg">
<path d="M16.2109 264.352V262.688H18.6406C19.2656 262.688 19.7292 262.568 20.0312 262.328C20.3385 262.089 20.4922 261.742 20.4922 261.289C20.4922 260.779 20.3438 260.411 20.0469 260.188C19.75 259.964 19.2812 259.852 18.6406 259.852H17.0156V269.312H14.6406V257.938H18.6406C19.9635 257.938 20.9974 258.193 21.7422 258.703C22.487 259.208 22.8594 259.992 22.8594 261.055C22.8594 261.518 22.75 261.951 22.5312 262.352C22.3177 262.753 21.9844 263.078 21.5312 263.328C21.0781 263.573 20.4896 263.708 19.7656 263.734L19.0938 264.352H16.2109ZM15.5469 269.312L16.4922 267.406H19C19.6042 267.406 20.0469 267.268 20.3281 266.992C20.6094 266.711 20.75 266.359 20.75 265.938C20.75 265.609 20.6927 265.328 20.5781 265.094C20.4688 264.854 20.2917 264.672 20.0469 264.547C19.8073 264.417 19.4896 264.352 19.0938 264.352H16.8281V262.688H19.6797L20.2188 263.352C20.9115 263.336 21.4688 263.453 21.8906 263.703C22.3125 263.953 22.6198 264.279 22.8125 264.68C23.0104 265.081 23.1094 265.508 23.1094 265.961C23.1094 267.065 22.7526 267.901 22.0391 268.469C21.3307 269.031 20.3177 269.312 19 269.312H15.5469ZM35.0188 263.875C35.0188 265.036 34.8156 266.034 34.4094 266.867C34.0031 267.701 33.4354 268.344 32.7063 268.797C31.9823 269.245 31.1411 269.469 30.1828 269.469C29.2349 269.469 28.3938 269.245 27.6594 268.797C26.9302 268.344 26.3573 267.701 25.9406 266.867C25.5292 266.034 25.3234 265.036 25.3234 263.875V263.383C25.3234 262.221 25.5292 261.224 25.9406 260.391C26.3521 259.552 26.9224 258.909 27.6516 258.461C28.3807 258.008 29.2193 257.781 30.1672 257.781C31.1255 257.781 31.9693 258.008 32.6984 258.461C33.4276 258.909 33.9953 259.552 34.4016 260.391C34.813 261.224 35.0188 262.221 35.0188 263.383V263.875ZM32.6359 263.367C32.6359 262.576 32.5396 261.909 32.3469 261.367C32.1542 260.826 31.8729 260.417 31.5031 260.141C31.1333 259.865 30.688 259.727 30.1672 259.727C29.6464 259.727 29.2036 259.865 28.8391 260.141C28.4745 260.417 28.1958 260.826 28.0031 261.367C27.8104 261.909 27.7141 262.576 27.7141 263.367V263.875C27.7141 264.661 27.8104 265.328 28.0031 265.875C28.201 266.417 28.4823 266.828 28.8469 267.109C29.2167 267.391 29.662 267.531 30.1828 267.531C30.7089 267.531 31.1542 267.391 31.5188 267.109C31.8833 266.828 32.1594 266.417 32.3469 265.875C32.5396 265.328 32.6359 264.661 32.6359 263.875V263.367ZM38.5531 269.312V267.406H41.0063C41.626 267.406 42.1443 267.271 42.5609 267C42.9828 266.724 43.3005 266.326 43.5141 265.805C43.7328 265.279 43.8422 264.638 43.8422 263.883V263.359C43.8422 262.594 43.7354 261.951 43.5219 261.43C43.3083 260.909 42.9906 260.516 42.5688 260.25C42.1521 259.984 41.6391 259.852 41.0297 259.852H38.5063V257.938H41.0297C42.0557 257.938 42.9594 258.167 43.7406 258.625C44.5219 259.078 45.1313 259.714 45.5688 260.531C46.0115 261.344 46.2328 262.292 46.2328 263.375V263.883C46.2328 264.966 46.0115 265.917 45.5688 266.734C45.1313 267.547 44.5193 268.18 43.7328 268.633C42.9516 269.086 42.0427 269.312 41.0063 269.312H38.5531ZM39.8969 269.312H37.5219V257.938H39.8969V269.312ZM52.6656 263.047L55.0172 257.938H57.5953L53.8688 265.188V269.312H51.4703V265.188L47.7359 257.938H50.3219L52.6656 263.047ZM68.3594 269.469C67.7917 269.469 67.2344 269.396 66.6875 269.25C66.1406 269.099 65.6458 268.87 65.2031 268.562C64.7656 268.255 64.4141 267.867 64.1484 267.398C63.888 266.924 63.7578 266.367 63.7578 265.727H66.125C66.125 266.07 66.1771 266.362 66.2812 266.602C66.3854 266.836 66.5365 267.029 66.7344 267.18C66.9323 267.326 67.1693 267.432 67.4453 267.5C67.7214 267.568 68.026 267.602 68.3594 267.602C68.7604 267.602 69.0911 267.547 69.3516 267.438C69.612 267.323 69.8047 267.169 69.9297 266.977C70.0547 266.784 70.1172 266.568 70.1172 266.328C70.1172 266.062 70.0599 265.833 69.9453 265.641C69.8359 265.443 69.6224 265.258 69.3047 265.086C68.987 264.914 68.5208 264.732 67.9062 264.539C67.3854 264.372 66.8958 264.185 66.4375 263.977C65.9792 263.763 65.5755 263.518 65.2266 263.242C64.8776 262.961 64.6016 262.633 64.3984 262.258C64.2005 261.883 64.1016 261.451 64.1016 260.961C64.1016 260.32 64.2812 259.763 64.6406 259.289C65 258.815 65.4948 258.445 66.125 258.18C66.7552 257.914 67.4818 257.781 68.3047 257.781C69.1484 257.781 69.8828 257.932 70.5078 258.234C71.1328 258.531 71.6172 258.945 71.9609 259.477C72.3099 260.003 72.4844 260.607 72.4844 261.289H70.125C70.125 260.971 70.0573 260.69 69.9219 260.445C69.7917 260.201 69.5885 260.008 69.3125 259.867C69.0365 259.727 68.6875 259.656 68.2656 259.656C67.8594 259.656 67.5208 259.716 67.25 259.836C66.9844 259.956 66.7865 260.115 66.6562 260.312C66.526 260.505 66.4609 260.727 66.4609 260.977C66.4609 261.221 66.5469 261.44 66.7188 261.633C66.8958 261.82 67.151 261.995 67.4844 262.156C67.8177 262.312 68.2266 262.464 68.7109 262.609C69.5391 262.865 70.2318 263.159 70.7891 263.492C71.3516 263.826 71.7734 264.221 72.0547 264.68C72.3411 265.138 72.4844 265.682 72.4844 266.312C72.4844 266.974 72.3151 267.542 71.9766 268.016C71.638 268.484 71.1589 268.844 70.5391 269.094C69.9193 269.344 69.1927 269.469 68.3594 269.469ZM83.8156 265.523C83.7635 266.289 83.5526 266.969 83.1828 267.562C82.813 268.156 82.2948 268.622 81.6281 268.961C80.9667 269.299 80.1672 269.469 79.2297 269.469C78.2557 269.469 77.4172 269.247 76.7141 268.805C76.0109 268.357 75.4693 267.724 75.0891 266.906C74.7141 266.089 74.5266 265.12 74.5266 264V263.258C74.5266 262.133 74.7219 261.161 75.1125 260.344C75.5031 259.526 76.05 258.893 76.7531 258.445C77.4615 257.997 78.2974 257.773 79.2609 257.773C80.2089 257.773 81.0083 257.948 81.6594 258.297C82.3104 258.646 82.8156 259.125 83.175 259.734C83.5344 260.339 83.7505 261.029 83.8234 261.805H81.4641C81.412 261.128 81.2245 260.609 80.9016 260.25C80.5786 259.891 80.0318 259.711 79.2609 259.711C78.7349 259.711 78.3 259.839 77.9562 260.094C77.6125 260.349 77.3547 260.737 77.1828 261.258C77.0109 261.779 76.925 262.44 76.925 263.242V264C76.925 264.781 77.0005 265.435 77.1516 265.961C77.3078 266.482 77.5552 266.875 77.8937 267.141C78.2323 267.406 78.6776 267.539 79.2297 267.539C79.7193 267.539 80.1203 267.464 80.4328 267.312C80.7505 267.161 80.9901 266.938 81.1516 266.641C81.3182 266.339 81.4198 265.966 81.4562 265.523H83.8156ZM94.7719 257.938V265.438C94.7719 266.318 94.5818 267.057 94.2016 267.656C93.8266 268.255 93.3109 268.708 92.6547 269.016C91.9984 269.318 91.251 269.469 90.4125 269.469C89.5635 269.469 88.8083 269.318 88.1469 269.016C87.4906 268.708 86.975 268.255 86.6 267.656C86.225 267.057 86.0375 266.318 86.0375 265.438V257.938H88.4047V265.438C88.4047 265.932 88.4854 266.339 88.6469 266.656C88.8083 266.969 89.0375 267.198 89.3344 267.344C89.6365 267.49 89.9958 267.562 90.4125 267.562C90.8344 267.562 91.1937 267.49 91.4906 267.344C91.7875 267.198 92.0141 266.969 92.1703 266.656C92.3266 266.339 92.4047 265.932 92.4047 265.438V257.938H94.7719ZM104.814 269.312H99.1109V267.406H104.814V269.312ZM99.8453 269.312H97.4781V257.938H99.8453V269.312ZM108.528 265.305V263.398H111.403C111.851 263.398 112.213 263.326 112.489 263.18C112.765 263.034 112.968 262.836 113.098 262.586C113.229 262.331 113.294 262.039 113.294 261.711C113.294 261.388 113.229 261.086 113.098 260.805C112.968 260.518 112.765 260.289 112.489 260.117C112.213 259.94 111.851 259.852 111.403 259.852H109.325V269.312H106.95V257.938H111.403C112.299 257.938 113.067 258.102 113.708 258.43C114.348 258.753 114.838 259.198 115.177 259.766C115.515 260.328 115.684 260.971 115.684 261.695C115.684 262.43 115.515 263.068 115.177 263.609C114.838 264.151 114.348 264.57 113.708 264.867C113.067 265.159 112.299 265.305 111.403 265.305H108.528ZM123.18 269.312H120.82V257.938H123.18V269.312ZM126.656 259.852H117.391V257.938H126.656V259.852Z" fill="white"/>
<g clip-path="url(#clip0_5_111)">
<path d="M116.898 187.962C116.908 187.952 116.908 187.932 116.918 187.922C116.938 187.892 116.951 187.858 116.958 187.822C116.968 187.792 116.978 187.752 116.988 187.722C116.997 187.69 117 187.656 116.998 187.622C116.998 187.602 117.008 187.592 117.008 187.572C117.008 187.552 116.998 187.542 116.998 187.522C116.998 187.502 116.988 187.452 116.988 187.422C116.988 187.392 116.968 187.352 116.958 187.322C116.948 187.288 116.934 187.255 116.918 187.222C116.908 187.212 116.908 187.192 116.898 187.182L105.682 167.757H128.104C128.226 167.754 128.346 167.723 128.454 167.667C128.484 167.647 128.504 167.627 128.534 167.607C128.615 167.557 128.683 167.488 128.734 167.407C128.744 167.387 128.764 167.377 128.784 167.357L140.14 147.692C140.15 147.682 140.15 147.662 140.16 147.652C140.179 147.622 140.193 147.588 140.2 147.553C140.21 147.523 140.22 147.483 140.23 147.453C140.238 147.42 140.242 147.386 140.24 147.353C140.24 147.333 140.25 147.323 140.25 147.303C140.25 147.283 140.24 147.273 140.24 147.253C140.24 147.233 140.23 147.183 140.23 147.153C140.23 147.123 140.21 147.083 140.2 147.053C140.189 147.018 140.176 146.985 140.16 146.953C140.15 146.943 140.15 146.923 140.14 146.913L128.784 127.248C128.767 127.222 128.747 127.199 128.724 127.178C128.693 127.133 128.656 127.093 128.614 127.058C128.572 127.025 128.529 126.995 128.484 126.968C128.444 126.942 128.4 126.922 128.354 126.908C128.303 126.888 128.249 126.878 128.194 126.878C128.164 126.878 128.134 126.858 128.104 126.858H105.682L116.898 107.433C116.908 107.423 116.908 107.403 116.918 107.393C116.938 107.362 116.951 107.328 116.958 107.293C116.968 107.263 116.978 107.223 116.988 107.193C116.997 107.16 117 107.127 116.998 107.093C116.998 107.073 117.008 107.063 117.008 107.043C117.008 107.023 116.998 107.013 116.998 106.993C116.998 106.973 116.988 106.923 116.988 106.893C116.988 106.863 116.968 106.823 116.958 106.793C116.948 106.759 116.934 106.725 116.918 106.693C116.908 106.683 116.908 106.663 116.898 106.653L105.552 86.988C105.535 86.9627 105.515 86.9392 105.492 86.9181C105.462 86.8757 105.429 86.8356 105.392 86.7981C105.351 86.7658 105.307 86.7357 105.262 86.7081C105.222 86.6822 105.178 86.662 105.132 86.6481C105.081 86.6286 105.027 86.6184 104.972 86.6181C104.942 86.6181 104.913 86.5981 104.883 86.5981H82.1806C82.1606 86.5981 82.1506 86.6081 82.1306 86.6081C82.1106 86.6081 82.0606 86.6181 82.0306 86.6181L81.9207 86.6481C81.889 86.6572 81.8586 86.6707 81.8306 86.6881C81.8189 86.6961 81.8048 86.6996 81.7907 86.6981L81.7607 86.7281C81.7323 86.7456 81.7055 86.7657 81.6808 86.7881C81.6516 86.8122 81.6248 86.839 81.6007 86.8681C81.5807 86.8981 81.5608 86.9181 81.5408 86.9481C81.5285 86.9594 81.5183 86.973 81.5108 86.988L70.2948 106.413L59.0788 86.988C59.0613 86.9627 59.0411 86.9392 59.0187 86.9181C58.9848 86.8756 58.9481 86.8355 58.9088 86.7981C58.8712 86.768 58.831 86.7413 58.7888 86.7181C58.7485 86.6922 58.7048 86.672 58.6589 86.6581C58.6081 86.6377 58.5537 86.6275 58.4989 86.6281C58.4689 86.6281 58.4389 86.6081 58.409 86.6081H35.707C35.687 86.6081 35.677 86.6181 35.657 86.6181C35.637 86.6181 35.587 86.6281 35.557 86.6281L35.4471 86.6581C35.4154 86.6672 35.385 86.6807 35.357 86.6981C35.3453 86.7061 35.3312 86.7096 35.3171 86.7081C35.3057 86.7205 35.2921 86.7306 35.2771 86.7381C35.2487 86.7556 35.2219 86.7757 35.1972 86.7981C35.1681 86.8222 35.1412 86.849 35.1171 86.8781C35.0971 86.9081 35.0772 86.9281 35.0572 86.9581C35.0449 86.9694 35.0347 86.983 35.0272 86.998L23.6812 106.663C23.6668 106.691 23.6566 106.722 23.6512 106.753C23.6301 106.801 23.6133 106.852 23.6012 106.903C23.5878 107.002 23.5878 107.103 23.6012 107.203C23.6133 107.254 23.6301 107.304 23.6512 107.353C23.6566 107.384 23.6668 107.414 23.6812 107.443L34.8972 126.868H12.4752C12.4552 126.868 12.4452 126.878 12.4252 126.878C12.4052 126.878 12.3552 126.888 12.3252 126.888L12.2153 126.918C12.1836 126.927 12.1532 126.94 12.1252 126.958C12.1152 126.968 12.0953 126.968 12.0853 126.978L12.0553 127.008C12.0269 127.025 12.0002 127.045 11.9754 127.068C11.9463 127.092 11.9194 127.119 11.8953 127.148C11.8753 127.178 11.8554 127.198 11.8354 127.228C11.8231 127.239 11.8129 127.253 11.8054 127.268L0.44943 146.933C0.434992 146.961 0.424853 146.991 0.419412 147.023C0.39828 147.071 0.381503 147.121 0.36938 147.173C0.35604 147.272 0.35604 147.373 0.36938 147.473C0.381503 147.524 0.39828 147.574 0.419412 147.623C0.424853 147.654 0.434992 147.684 0.44943 147.712L11.8054 167.377L11.8354 167.407C11.8556 167.44 11.879 167.47 11.9053 167.497C11.9453 167.537 11.9853 167.567 12.0253 167.607C12.0553 167.627 12.0654 167.657 12.0953 167.667C12.1071 167.675 12.1212 167.679 12.1352 167.677C12.2438 167.733 12.3633 167.764 12.4851 167.767H34.9072L23.7012 187.192C23.6868 187.221 23.6767 187.251 23.6712 187.282C23.6501 187.331 23.6333 187.381 23.6212 187.432C23.6078 187.532 23.6078 187.633 23.6212 187.732C23.6333 187.784 23.6501 187.834 23.6712 187.882C23.6767 187.913 23.6868 187.944 23.7012 187.972L35.0472 207.637L35.0772 207.667C35.0974 207.699 35.1208 207.73 35.1471 207.757C35.1871 207.797 35.2271 207.827 35.2671 207.867C35.2971 207.887 35.3072 207.917 35.3371 207.927C35.3489 207.935 35.363 207.939 35.377 207.937C35.4856 207.993 35.6051 208.023 35.7269 208.027H58.429C58.5508 208.023 58.6703 207.993 58.7788 207.937C58.8088 207.917 58.8288 207.897 58.8587 207.877C58.9395 207.826 59.008 207.758 59.0587 207.677C59.0687 207.657 59.0887 207.647 59.1087 207.627L70.3248 188.202L81.5408 207.627L81.5708 207.657C81.591 207.689 81.6144 207.72 81.6407 207.747C81.6807 207.787 81.7207 207.817 81.7607 207.857C81.7907 207.877 81.8006 207.907 81.8306 207.917C81.8423 207.925 81.8566 207.929 81.8706 207.927C81.9792 207.983 82.0987 208.013 82.2205 208.017H104.923C105.044 208.013 105.164 207.983 105.272 207.927C105.302 207.907 105.322 207.887 105.352 207.867C105.433 207.816 105.502 207.748 105.552 207.667C105.562 207.647 105.582 207.637 105.602 207.617L116.898 187.962ZM104.413 206.447H83.5201L93.9663 188.352H114.859L104.413 206.447ZM57.9291 206.447H37.0365L59.3786 167.757H80.2712L57.9291 206.447ZM13.7947 166.178L24.241 148.082H68.9153L58.4689 166.178H13.7947ZM12.4352 129.207L22.8815 147.303L12.4352 165.398L1.9888 147.303L12.4352 129.207ZM25.2306 107.033L35.677 88.9375L58.0191 127.628L47.5728 145.723L25.2306 107.033ZM82.1706 88.9475L92.6169 107.043L70.2848 145.733L59.8384 127.638L82.1706 88.9475ZM104.413 88.1577L114.859 106.253H93.9663L83.5201 88.1577H104.413ZM127.665 128.427L138.111 146.523H93.4366L82.9902 128.427H127.665ZM81.6207 129.207L91.6072 146.513H71.6243L81.6207 129.207ZM68.9153 146.513H48.9323L58.9188 129.207L68.9153 146.513ZM70.2748 148.872L80.2612 166.178H60.2783L70.2748 148.872ZM71.6343 148.092H92.5169L114.849 186.782H93.9563L71.6343 148.092ZM94.3362 148.092H138.101L127.655 166.188H104.773L94.3362 148.092ZM82.9902 126.848L93.9764 107.823H114.869L103.883 126.848H82.9902ZM58.9188 126.068L37.0365 88.1577H57.9291L69.3751 107.973L58.9188 126.068ZM46.2033 146.513H24.231L13.7847 128.417H35.7569L46.2033 146.513ZM57.5593 167.757L35.677 205.668L25.2306 187.572L36.6666 167.757H57.5593ZM81.6207 168.537L92.6068 187.562L82.1606 205.658L71.1745 186.623L81.6207 168.537Z" fill="white"/>
</g>
<g clip-path="url(#clip1_5_111)">
<path d="M201.138 81.8121L217.589 65.3608H165.838L217.742 13.4569L206.105 1.82007L154.21 53.7239V1.97305L137.75 18.4324V81.8121H201.138Z" stroke="#707070" stroke-width="0.999901"/>
</g>
<defs>
<clipPath id="clip0_5_111">
<rect width="139.891" height="121.438" fill="white" transform="translate(0.359375 86.5938)"/>
</clipPath>
<clipPath id="clip1_5_111">
<rect width="81.5469" height="81.5469" fill="white" transform="translate(137.25 0.765625)"/>
</clipPath>
</defs>
</svg>
