<svg width="635" height="29" viewBox="0 0 635 29" fill="none" xmlns="http://www.w3.org/2000/svg">
<path d="M7.66992 14.1475C7.66992 14.863 7.47624 15.4007 7.08887 15.7607C6.7015 16.1162 6.17741 16.2939 5.5166 16.2939C4.82845 16.2939 4.27702 16.0501 3.8623 15.5625C3.44759 15.0703 3.24023 14.4323 3.24023 13.6484V12.9854C3.24023 12.2015 3.44759 11.5658 3.8623 11.0781C4.27702 10.5859 4.82845 10.3398 5.5166 10.3398C6.17741 10.3398 6.7015 10.5176 7.08887 10.873C7.48079 11.2285 7.67676 11.764 7.67676 12.4795H7C7 11.9554 6.8724 11.5703 6.61719 11.3242C6.36198 11.0781 5.99512 10.9551 5.5166 10.9551C5.1748 10.9551 4.88314 11.0439 4.6416 11.2217C4.40462 11.3994 4.22461 11.641 4.10156 11.9463C3.97852 12.2516 3.91699 12.5957 3.91699 12.9785V13.6484C3.91699 14.2318 4.05371 14.7148 4.32715 15.0977C4.60514 15.4805 5.00163 15.6719 5.5166 15.6719C5.99512 15.6719 6.3597 15.5534 6.61035 15.3164C6.86556 15.0749 6.99316 14.6852 6.99316 14.1475H7.66992ZM1.31934 13.3135C1.31934 13.9469 1.42871 14.5394 1.64746 15.0908C1.87077 15.6423 2.17839 16.1253 2.57031 16.54C2.96224 16.9502 3.41569 17.2715 3.93066 17.5039C4.44564 17.7318 4.99707 17.8457 5.58496 17.8457C6.17285 17.8457 6.72428 17.7318 7.23926 17.5039C7.75423 17.2715 8.20768 16.9502 8.59961 16.54C8.99154 16.1253 9.29688 15.6423 9.51562 15.0908C9.73893 14.5394 9.85059 13.9469 9.85059 13.3135C9.85059 12.6755 9.73893 12.083 9.51562 11.5361C9.29688 10.9893 8.99154 10.5107 8.59961 10.1006C8.20768 9.69043 7.75423 9.37142 7.23926 9.14355C6.72428 8.91569 6.17285 8.80176 5.58496 8.80176C4.99707 8.80176 4.44564 8.91569 3.93066 9.14355C3.41569 9.37142 2.96224 9.69043 2.57031 10.1006C2.17839 10.5107 1.87077 10.9893 1.64746 11.5361C1.42871 12.083 1.31934 12.6755 1.31934 13.3135ZM0.731445 13.3135C0.731445 12.5889 0.856771 11.9167 1.10742 11.2969C1.36263 10.6771 1.71126 10.137 2.15332 9.67676C2.59993 9.21191 3.11491 8.85189 3.69824 8.59668C4.28613 8.33691 4.91504 8.20703 5.58496 8.20703C6.25488 8.20703 6.88151 8.33691 7.46484 8.59668C8.05273 8.85189 8.56999 9.21191 9.0166 9.67676C9.46322 10.137 9.81185 10.6771 10.0625 11.2969C10.3132 11.9167 10.4385 12.5889 10.4385 13.3135C10.4385 14.0381 10.3132 14.7103 10.0625 15.3301C9.81185 15.9499 9.46322 16.4945 9.0166 16.9639C8.56999 17.4287 8.05273 17.791 7.46484 18.0508C6.88151 18.3105 6.25488 18.4404 5.58496 18.4404C4.91504 18.4404 4.28613 18.3105 3.69824 18.0508C3.11491 17.791 2.59993 17.4287 2.15332 16.9639C1.71126 16.4945 1.36263 15.9499 1.10742 15.3301C0.856771 14.7103 0.731445 14.0381 0.731445 13.3135ZM21.793 18.2969H15.5518V17.6611L18.8125 13.9697C19.2227 13.5049 19.5485 13.0993 19.79 12.7529C20.0316 12.402 20.2048 12.083 20.3096 11.7959C20.4189 11.5042 20.4736 11.2217 20.4736 10.9482C20.4736 10.3467 20.2959 9.85449 19.9404 9.47168C19.585 9.08887 19.07 8.89746 18.3955 8.89746C17.9352 8.89746 17.5365 8.99772 17.1992 9.19824C16.862 9.39876 16.6022 9.6722 16.4199 10.0186C16.2422 10.3649 16.1533 10.7614 16.1533 11.208H15.333C15.333 10.6611 15.4538 10.1598 15.6953 9.7041C15.9414 9.24837 16.2923 8.88607 16.748 8.61719C17.2083 8.34375 17.7575 8.20703 18.3955 8.20703C19.2933 8.20703 19.9997 8.44401 20.5146 8.91797C21.0342 9.38737 21.2939 10.0391 21.2939 10.873C21.2939 11.2741 21.2005 11.6774 21.0137 12.083C20.8314 12.4886 20.5898 12.8919 20.2891 13.293C19.9928 13.694 19.6761 14.0859 19.3389 14.4688L16.5566 17.6064H21.793V18.2969ZM29.3193 14.1475C29.3193 15.1182 29.1986 15.9202 28.957 16.5537C28.7201 17.1872 28.3737 17.6589 27.918 17.9688C27.4622 18.2786 26.9131 18.4336 26.2705 18.4336C25.637 18.4336 25.0902 18.2786 24.6299 17.9688C24.1696 17.6589 23.8164 17.1872 23.5703 16.5537C23.3242 15.9202 23.2012 15.1182 23.2012 14.1475V12.4658C23.2012 11.4906 23.3219 10.6885 23.5635 10.0596C23.8096 9.43066 24.1605 8.96354 24.6162 8.6582C25.0719 8.35286 25.6188 8.2002 26.2568 8.2002C26.8994 8.2002 27.4486 8.35286 27.9043 8.6582C28.36 8.96354 28.7087 9.43066 28.9502 10.0596C29.1963 10.6885 29.3193 11.4906 29.3193 12.4658V14.1475ZM28.5059 12.3633C28.5059 11.6068 28.4215 10.971 28.2529 10.4561C28.0843 9.94108 27.8337 9.55371 27.501 9.29395C27.1729 9.02962 26.7581 8.89746 26.2568 8.89746C25.7646 8.89746 25.3522 9.02962 25.0195 9.29395C24.6868 9.55371 24.4362 9.94108 24.2676 10.4561C24.1035 10.971 24.0215 11.6068 24.0215 12.3633V14.2363C24.0215 14.9792 24.1058 15.6126 24.2744 16.1367C24.443 16.6608 24.6937 17.0596 25.0264 17.333C25.3636 17.6064 25.7783 17.7432 26.2705 17.7432C26.7718 17.7432 27.1865 17.6064 27.5146 17.333C27.8428 17.0596 28.0889 16.6608 28.2529 16.1367C28.4215 15.6126 28.5059 14.9792 28.5059 14.2363V12.3633ZM37.3242 18.2969H31.083V17.6611L34.3438 13.9697C34.7539 13.5049 35.0798 13.0993 35.3213 12.7529C35.5628 12.402 35.736 12.083 35.8408 11.7959C35.9502 11.5042 36.0049 11.2217 36.0049 10.9482C36.0049 10.3467 35.8271 9.85449 35.4717 9.47168C35.1162 9.08887 34.6012 8.89746 33.9268 8.89746C33.4665 8.89746 33.0677 8.99772 32.7305 9.19824C32.3932 9.39876 32.1335 9.6722 31.9512 10.0186C31.7734 10.3649 31.6846 10.7614 31.6846 11.208H30.8643C30.8643 10.6611 30.985 10.1598 31.2266 9.7041C31.4727 9.24837 31.8236 8.88607 32.2793 8.61719C32.7396 8.34375 33.2887 8.20703 33.9268 8.20703C34.8245 8.20703 35.5309 8.44401 36.0459 8.91797C36.5654 9.38737 36.8252 10.0391 36.8252 10.873C36.8252 11.2741 36.7318 11.6774 36.5449 12.083C36.3626 12.4886 36.1211 12.8919 35.8203 13.293C35.5241 13.694 35.2074 14.0859 34.8701 14.4688L32.0879 17.6064H37.3242V18.2969ZM45.0898 18.2969H38.8486V17.6611L42.1094 13.9697C42.5195 13.5049 42.8454 13.0993 43.0869 12.7529C43.3285 12.402 43.5016 12.083 43.6064 11.7959C43.7158 11.5042 43.7705 11.2217 43.7705 10.9482C43.7705 10.3467 43.5928 9.85449 43.2373 9.47168C42.8818 9.08887 42.3669 8.89746 41.6924 8.89746C41.2321 8.89746 40.8333 8.99772 40.4961 9.19824C40.1589 9.39876 39.8991 9.6722 39.7168 10.0186C39.5391 10.3649 39.4502 10.7614 39.4502 11.208H38.6299C38.6299 10.6611 38.7507 10.1598 38.9922 9.7041C39.2383 9.24837 39.5892 8.88607 40.0449 8.61719C40.5052 8.34375 41.0544 8.20703 41.6924 8.20703C42.5902 8.20703 43.2965 8.44401 43.8115 8.91797C44.3311 9.38737 44.5908 10.0391 44.5908 10.873C44.5908 11.2741 44.4974 11.6774 44.3105 12.083C44.1283 12.4886 43.8867 12.8919 43.5859 13.293C43.2897 13.694 42.973 14.0859 42.6357 14.4688L39.8535 17.6064H45.0898V18.2969ZM57.5586 19.5137L56.9844 20.04L54.7148 18.0645L55.2822 17.5176L57.5586 19.5137ZM57.6816 13.8535C57.6816 14.7832 57.5221 15.5921 57.2031 16.2803C56.8887 16.9639 56.4421 17.4948 55.8633 17.873C55.2845 18.2467 54.6009 18.4336 53.8125 18.4336C53.0378 18.4336 52.3587 18.2467 51.7754 17.873C51.1921 17.4948 50.7363 16.9639 50.4082 16.2803C50.0846 15.5921 49.9229 14.7832 49.9229 13.8535V12.7871C49.9229 11.8574 50.0846 11.0508 50.4082 10.3672C50.7318 9.67904 51.1829 9.14811 51.7617 8.77441C52.3451 8.39616 53.0241 8.20703 53.7988 8.20703C54.5872 8.20703 55.2708 8.39616 55.8496 8.77441C56.4329 9.14811 56.8841 9.67904 57.2031 10.3672C57.5221 11.0508 57.6816 11.8574 57.6816 12.7871V13.8535ZM56.8408 12.7734C56.8408 11.9896 56.7201 11.3128 56.4785 10.7432C56.2415 10.1689 55.8952 9.72689 55.4395 9.41699C54.9883 9.10254 54.4414 8.94531 53.7988 8.94531C53.1745 8.94531 52.6344 9.10254 52.1787 9.41699C51.7275 9.72689 51.3789 10.1689 51.1328 10.7432C50.8913 11.3128 50.7705 11.9896 50.7705 12.7734V13.8535C50.7705 14.6419 50.8936 15.3232 51.1396 15.8975C51.3857 16.4717 51.7367 16.916 52.1924 17.2305C52.6481 17.5449 53.1882 17.7021 53.8125 17.7021C54.4551 17.7021 55.002 17.5449 55.4531 17.2305C55.9043 16.916 56.2484 16.4717 56.4854 15.8975C56.7223 15.3232 56.8408 14.6419 56.8408 13.8535V12.7734ZM59.2061 14.4893C59.2061 13.7692 59.3428 13.1289 59.6162 12.5684C59.8896 12.0078 60.2725 11.568 60.7646 11.249C61.2568 10.9255 61.8356 10.7637 62.501 10.7637C63.1709 10.7637 63.7542 10.9255 64.251 11.249C64.7477 11.568 65.1305 12.0078 65.3994 12.5684C65.6729 13.1289 65.8096 13.7692 65.8096 14.4893V14.7148C65.8096 15.4303 65.6729 16.0684 65.3994 16.6289C65.1305 17.1895 64.7477 17.6315 64.251 17.9551C63.7588 18.2741 63.18 18.4336 62.5146 18.4336C61.8447 18.4336 61.2614 18.2741 60.7646 17.9551C60.2725 17.6315 59.8896 17.1895 59.6162 16.6289C59.3428 16.0684 59.2061 15.4303 59.2061 14.7148V14.4893ZM60.0264 14.7148C60.0264 15.2526 60.1221 15.7516 60.3135 16.2119C60.5049 16.6722 60.7852 17.0436 61.1543 17.3262C61.5234 17.6042 61.9769 17.7432 62.5146 17.7432C63.0479 17.7432 63.4967 17.6042 63.8613 17.3262C64.2305 17.0436 64.5107 16.6722 64.7021 16.2119C64.8936 15.7516 64.9893 15.2526 64.9893 14.7148V14.4893C64.9893 13.9561 64.8936 13.4593 64.7021 12.999C64.5107 12.5387 64.2305 12.1673 63.8613 11.8848C63.4922 11.5977 63.0387 11.4541 62.501 11.4541C61.9678 11.4541 61.5166 11.5977 61.1475 11.8848C60.7783 12.1673 60.498 12.5387 60.3066 12.999C60.1198 13.4593 60.0264 13.9561 60.0264 14.4893V14.7148ZM72.3105 7.79688H73.1309V18.2969H72.3652L72.3105 16.8613V7.79688ZM67.1768 14.5303C67.1768 13.7646 67.293 13.0993 67.5254 12.5342C67.7578 11.9691 68.0859 11.5339 68.5098 11.2285C68.9382 10.9186 69.4463 10.7637 70.0342 10.7637C70.6084 10.7637 71.096 10.889 71.4971 11.1396C71.8981 11.3857 72.2171 11.7321 72.4541 12.1787C72.6956 12.6208 72.8597 13.1403 72.9463 13.7373V15.5898C72.8734 16.1367 72.7184 16.6243 72.4814 17.0527C72.2445 17.4811 71.9209 17.8184 71.5107 18.0645C71.1051 18.3105 70.6084 18.4336 70.0205 18.4336C69.4372 18.4336 68.9313 18.2741 68.5029 17.9551C68.0791 17.6361 67.751 17.194 67.5186 16.6289C67.2907 16.0638 67.1768 15.4121 67.1768 14.6738V14.5303ZM67.9971 14.6738C67.9971 15.248 68.0745 15.7653 68.2295 16.2256C68.3844 16.6813 68.6214 17.0459 68.9404 17.3193C69.264 17.5882 69.6742 17.7227 70.1709 17.7227C70.6403 17.7227 71.0345 17.6338 71.3535 17.4561C71.6725 17.2738 71.9277 17.0345 72.1191 16.7383C72.3105 16.4375 72.4495 16.1071 72.5361 15.7471V13.6143C72.4814 13.3773 72.4017 13.1335 72.2969 12.8828C72.1921 12.6322 72.0485 12.402 71.8662 12.1924C71.6885 11.9782 71.4606 11.805 71.1826 11.6729C70.9092 11.5407 70.5765 11.4746 70.1846 11.4746C69.6833 11.4746 69.2708 11.609 68.9473 11.8779C68.6237 12.1468 68.3844 12.5137 68.2295 12.9785C68.0745 13.4388 67.9971 13.9561 67.9971 14.5303V14.6738ZM78.1416 18.4336C77.499 18.4336 76.9271 18.2786 76.4258 17.9688C75.929 17.6543 75.5371 17.2259 75.25 16.6836C74.9674 16.1367 74.8262 15.5101 74.8262 14.8037V14.5098C74.8262 13.7487 74.972 13.0879 75.2637 12.5273C75.5599 11.9668 75.9473 11.5339 76.4258 11.2285C76.9089 10.9186 77.4307 10.7637 77.9912 10.7637C78.6201 10.7637 79.1533 10.9095 79.5908 11.2012C80.0283 11.4883 80.3587 11.887 80.582 12.3975C80.8099 12.9079 80.9238 13.4912 80.9238 14.1475V14.6465H75.3252V13.9561H80.1035V13.8604C80.0944 13.4456 80.0101 13.056 79.8506 12.6914C79.6956 12.3268 79.4632 12.0306 79.1533 11.8027C78.8434 11.5703 78.4561 11.4541 77.9912 11.4541C77.5309 11.4541 77.123 11.584 76.7676 11.8438C76.4121 12.1035 76.1364 12.4635 75.9404 12.9238C75.7445 13.3796 75.6465 13.9082 75.6465 14.5098V14.8037C75.6465 15.3506 75.7513 15.8451 75.9609 16.2871C76.1751 16.7292 76.4736 17.0824 76.8564 17.3467C77.2393 17.611 77.679 17.7432 78.1758 17.7432C78.6133 17.7432 79.0007 17.6634 79.3379 17.5039C79.6751 17.3398 79.9782 17.0824 80.2471 16.7314L80.7666 17.1211C80.5251 17.4811 80.1924 17.791 79.7686 18.0508C79.3493 18.306 78.807 18.4336 78.1416 18.4336ZM87.165 18.2969H86.3242V8.34375H87.165V18.2969ZM90.4941 18.2969H89.6738V10.9004H90.46L90.4941 12.4795V18.2969ZM89.9473 13.9287C89.9837 13.3499 90.1273 12.8213 90.3779 12.3428C90.6286 11.8643 90.9681 11.4814 91.3965 11.1943C91.8294 10.9072 92.3285 10.7637 92.8936 10.7637C93.3903 10.7637 93.8141 10.8548 94.165 11.0371C94.516 11.2194 94.7848 11.5111 94.9717 11.9121C95.1631 12.3086 95.2588 12.8327 95.2588 13.4844V18.2969H94.4385V13.4775C94.4385 12.9671 94.3678 12.5661 94.2266 12.2744C94.0853 11.9827 93.8848 11.7754 93.625 11.6523C93.3652 11.5293 93.0576 11.4678 92.7021 11.4678C92.3102 11.4678 91.9661 11.5544 91.6699 11.7275C91.3783 11.8962 91.1322 12.1172 90.9316 12.3906C90.7357 12.6595 90.5853 12.9489 90.4805 13.2588C90.3757 13.5687 90.321 13.8604 90.3164 14.1338L89.9473 13.9287ZM100.181 11.5703H96.4688V10.9004H100.181V11.5703ZM98.6426 9V16.499C98.6426 16.8408 98.6882 17.1006 98.7793 17.2783C98.8704 17.4515 98.9889 17.5677 99.1348 17.627C99.2852 17.6862 99.4447 17.7158 99.6133 17.7158C99.7363 17.7158 99.8525 17.709 99.9619 17.6953C100.076 17.6771 100.178 17.6611 100.27 17.6475L100.304 18.3242C100.203 18.3561 100.074 18.3812 99.9141 18.3994C99.7546 18.4222 99.5951 18.4336 99.4355 18.4336C99.1211 18.4336 98.8431 18.3766 98.6016 18.2627C98.36 18.1442 98.1686 17.9437 98.0273 17.6611C97.8906 17.374 97.8223 16.9844 97.8223 16.4922V9H98.6426ZM104.747 18.4336C104.104 18.4336 103.533 18.2786 103.031 17.9688C102.535 17.6543 102.143 17.2259 101.855 16.6836C101.573 16.1367 101.432 15.5101 101.432 14.8037V14.5098C101.432 13.7487 101.577 13.0879 101.869 12.5273C102.165 11.9668 102.553 11.5339 103.031 11.2285C103.514 10.9186 104.036 10.7637 104.597 10.7637C105.226 10.7637 105.759 10.9095 106.196 11.2012C106.634 11.4883 106.964 11.887 107.188 12.3975C107.415 12.9079 107.529 13.4912 107.529 14.1475V14.6465H101.931V13.9561H106.709V13.8604C106.7 13.4456 106.616 13.056 106.456 12.6914C106.301 12.3268 106.069 12.0306 105.759 11.8027C105.449 11.5703 105.062 11.4541 104.597 11.4541C104.136 11.4541 103.729 11.584 103.373 11.8438C103.018 12.1035 102.742 12.4635 102.546 12.9238C102.35 13.3796 102.252 13.9082 102.252 14.5098V14.8037C102.252 15.3506 102.357 15.8451 102.566 16.2871C102.781 16.7292 103.079 17.0824 103.462 17.3467C103.845 17.611 104.285 17.7432 104.781 17.7432C105.219 17.7432 105.606 17.6634 105.943 17.5039C106.281 17.3398 106.584 17.0824 106.853 16.7314L107.372 17.1211C107.131 17.4811 106.798 17.791 106.374 18.0508C105.955 18.306 105.412 18.4336 104.747 18.4336ZM109.949 18.2969H109.129V10.9004H109.929L109.949 12.124V18.2969ZM112.547 11.5908C112.456 11.5771 112.367 11.5658 112.28 11.5566C112.194 11.5475 112.1 11.543 112 11.543C111.531 11.543 111.136 11.6569 110.817 11.8848C110.498 12.1126 110.255 12.418 110.086 12.8008C109.922 13.1836 109.833 13.612 109.819 14.0859L109.512 14.1953C109.512 13.5527 109.601 12.974 109.778 12.459C109.961 11.9395 110.236 11.527 110.605 11.2217C110.979 10.9163 111.453 10.7637 112.027 10.7637C112.132 10.7637 112.235 10.7728 112.335 10.791C112.44 10.8047 112.517 10.8229 112.567 10.8457L112.547 11.5908ZM118.104 13.1562C118.104 12.6276 117.94 12.2106 117.612 11.9053C117.284 11.5999 116.812 11.4473 116.197 11.4473C115.814 11.4473 115.473 11.5156 115.172 11.6523C114.876 11.7845 114.641 11.9645 114.468 12.1924C114.299 12.4157 114.215 12.6663 114.215 12.9443L113.395 12.9375C113.395 12.5638 113.513 12.2129 113.75 11.8848C113.992 11.5521 114.324 11.2832 114.748 11.0781C115.176 10.8685 115.671 10.7637 116.231 10.7637C116.76 10.7637 117.225 10.8525 117.626 11.0303C118.032 11.208 118.348 11.4746 118.576 11.8301C118.809 12.1855 118.925 12.6322 118.925 13.1699V16.7451C118.925 17.0003 118.943 17.2646 118.979 17.5381C119.021 17.8115 119.077 18.0371 119.15 18.2148V18.2969H118.275C118.221 18.1328 118.177 17.9277 118.146 17.6816C118.118 17.431 118.104 17.194 118.104 16.9707V13.1562ZM118.31 14.6191H116.703C115.869 14.6191 115.215 14.7673 114.741 15.0635C114.272 15.3551 114.037 15.7539 114.037 16.2598C114.037 16.6608 114.185 17.0026 114.481 17.2852C114.782 17.5677 115.188 17.709 115.698 17.709C116.154 17.709 116.555 17.627 116.901 17.4629C117.252 17.2943 117.539 17.071 117.763 16.793C117.991 16.515 118.146 16.2142 118.228 15.8906L118.583 16.3623C118.524 16.5902 118.414 16.8249 118.255 17.0664C118.1 17.3034 117.897 17.5267 117.646 17.7363C117.396 17.9414 117.1 18.11 116.758 18.2422C116.421 18.3698 116.038 18.4336 115.609 18.4336C115.126 18.4336 114.705 18.3424 114.345 18.1602C113.989 17.9779 113.711 17.7295 113.511 17.415C113.315 17.096 113.217 16.736 113.217 16.335C113.217 15.6058 113.518 15.0339 114.119 14.6191C114.725 14.1999 115.55 13.9902 116.594 13.9902H118.296L118.31 14.6191ZM123.84 17.7432C124.186 17.7432 124.51 17.6771 124.811 17.5449C125.116 17.4082 125.367 17.2122 125.562 16.957C125.763 16.6973 125.877 16.3805 125.904 16.0068H126.69C126.668 16.4762 126.524 16.8955 126.26 17.2646C125.995 17.6292 125.651 17.9163 125.228 18.126C124.808 18.3311 124.346 18.4336 123.84 18.4336C123.152 18.4336 122.573 18.2718 122.104 17.9482C121.634 17.6201 121.281 17.1781 121.044 16.6221C120.807 16.0615 120.688 15.4349 120.688 14.7422V14.4551C120.688 13.7578 120.807 13.1312 121.044 12.5752C121.285 12.0192 121.639 11.5794 122.104 11.2559C122.573 10.9277 123.149 10.7637 123.833 10.7637C124.362 10.7637 124.836 10.8708 125.255 11.085C125.679 11.2992 126.018 11.6022 126.273 11.9941C126.529 12.3861 126.668 12.8509 126.69 13.3887H125.904C125.882 12.9922 125.777 12.6504 125.59 12.3633C125.403 12.0716 125.157 11.8483 124.852 11.6934C124.546 11.5339 124.207 11.4541 123.833 11.4541C123.277 11.4541 122.826 11.5954 122.479 11.8779C122.138 12.1605 121.889 12.5296 121.734 12.9854C121.579 13.4411 121.502 13.931 121.502 14.4551V14.7422C121.502 15.2663 121.579 15.7585 121.734 16.2188C121.889 16.6745 122.138 17.0436 122.479 17.3262C122.826 17.6042 123.279 17.7432 123.84 17.7432ZM131.134 11.5703H127.422V10.9004H131.134V11.5703ZM129.596 9V16.499C129.596 16.8408 129.641 17.1006 129.732 17.2783C129.824 17.4515 129.942 17.5677 130.088 17.627C130.238 17.6862 130.398 17.7158 130.566 17.7158C130.689 17.7158 130.806 17.709 130.915 17.6953C131.029 17.6771 131.132 17.6611 131.223 17.6475L131.257 18.3242C131.157 18.3561 131.027 18.3812 130.867 18.3994C130.708 18.4222 130.548 18.4336 130.389 18.4336C130.074 18.4336 129.796 18.3766 129.555 18.2627C129.313 18.1442 129.122 17.9437 128.98 17.6611C128.844 17.374 128.775 16.9844 128.775 16.4922V9H129.596ZM133.752 18.2969H132.938V10.9004H133.752V18.2969ZM132.795 8.76074C132.795 8.60579 132.843 8.47591 132.938 8.37109C133.039 8.26172 133.175 8.20703 133.349 8.20703C133.526 8.20703 133.665 8.26172 133.766 8.37109C133.866 8.47591 133.916 8.60579 133.916 8.76074C133.916 8.91113 133.866 9.03874 133.766 9.14355C133.665 9.24837 133.526 9.30078 133.349 9.30078C133.175 9.30078 133.039 9.24837 132.938 9.14355C132.843 9.03874 132.795 8.91113 132.795 8.76074ZM140.533 10.9004H141.381L138.612 18.2969H138.011L138.168 17.5176L140.533 10.9004ZM138.421 17.5381L138.551 18.2969H137.949L135.174 10.9004H136.021L138.421 17.5381ZM145.585 18.4336C144.942 18.4336 144.37 18.2786 143.869 17.9688C143.372 17.6543 142.98 17.2259 142.693 16.6836C142.411 16.1367 142.27 15.5101 142.27 14.8037V14.5098C142.27 13.7487 142.415 13.0879 142.707 12.5273C143.003 11.9668 143.391 11.5339 143.869 11.2285C144.352 10.9186 144.874 10.7637 145.435 10.7637C146.063 10.7637 146.597 10.9095 147.034 11.2012C147.472 11.4883 147.802 11.887 148.025 12.3975C148.253 12.9079 148.367 13.4912 148.367 14.1475V14.6465H142.769V13.9561H147.547V13.8604C147.538 13.4456 147.453 13.056 147.294 12.6914C147.139 12.3268 146.907 12.0306 146.597 11.8027C146.287 11.5703 145.899 11.4541 145.435 11.4541C144.974 11.4541 144.566 11.584 144.211 11.8438C143.855 12.1035 143.58 12.4635 143.384 12.9238C143.188 13.3796 143.09 13.9082 143.09 14.5098V14.8037C143.09 15.3506 143.195 15.8451 143.404 16.2871C143.618 16.7292 143.917 17.0824 144.3 17.3467C144.683 17.611 145.122 17.7432 145.619 17.7432C146.057 17.7432 146.444 17.6634 146.781 17.5039C147.118 17.3398 147.422 17.0824 147.69 16.7314L148.21 17.1211C147.968 17.4811 147.636 17.791 147.212 18.0508C146.793 18.306 146.25 18.4336 145.585 18.4336ZM150.76 17.9619C150.76 18.3812 150.673 18.7845 150.5 19.1719C150.331 19.5592 150.097 19.8874 149.796 20.1562L149.311 19.8076C149.452 19.6162 149.57 19.4271 149.666 19.2402C149.762 19.0534 149.832 18.8551 149.878 18.6455C149.928 18.4404 149.953 18.2194 149.953 17.9824V17.0049H150.76V17.9619ZM156.099 18.2969H155.224L158.983 8.34375H159.599L159.544 8.93848L156.099 18.2969ZM159.223 8.93848L159.182 8.34375H159.783L163.55 18.2969H162.675L159.223 8.93848ZM162.06 15.5078H156.775V14.79H162.06V15.5078ZM165.744 18.2969H164.931V7.79688H165.744V18.2969ZM168.889 18.2969H168.075V7.79688H168.889V18.2969ZM177.946 8.34375C178.634 8.34375 179.231 8.4554 179.737 8.67871C180.243 8.90202 180.633 9.23242 180.906 9.66992C181.184 10.1029 181.323 10.6361 181.323 11.2695C181.323 11.7389 181.225 12.165 181.029 12.5479C180.833 12.9307 180.56 13.252 180.209 13.5117C179.863 13.7669 179.462 13.9424 179.006 14.0381L178.712 14.1475H175.26L175.246 13.4365H178.131C178.655 13.4365 179.09 13.3363 179.437 13.1357C179.783 12.9307 180.043 12.6641 180.216 12.3359C180.394 12.0033 180.482 11.6478 180.482 11.2695C180.482 10.5905 180.264 10.0527 179.826 9.65625C179.393 9.25977 178.767 9.06152 177.946 9.06152H175.554V18.2969H174.713V8.34375H177.946ZM178.281 13.8467L179.184 13.8398L181.754 18.208V18.2969H180.852L178.281 13.8467ZM184.352 18.2969H183.538V10.9004H184.352V18.2969ZM183.395 8.76074C183.395 8.60579 183.442 8.47591 183.538 8.37109C183.638 8.26172 183.775 8.20703 183.948 8.20703C184.126 8.20703 184.265 8.26172 184.365 8.37109C184.465 8.47591 184.516 8.60579 184.516 8.76074C184.516 8.91113 184.465 9.03874 184.365 9.14355C184.265 9.24837 184.126 9.30078 183.948 9.30078C183.775 9.30078 183.638 9.24837 183.538 9.14355C183.442 9.03874 183.395 8.91113 183.395 8.76074ZM192.213 10.9004V18.167C192.213 18.8096 192.09 19.361 191.844 19.8213C191.602 20.2816 191.258 20.6348 190.812 20.8809C190.369 21.127 189.848 21.25 189.246 21.25C188.941 21.25 188.626 21.2021 188.303 21.1064C187.984 21.0153 187.681 20.874 187.394 20.6826C187.111 20.4958 186.869 20.2633 186.669 19.9854L187.127 19.4863C187.428 19.8555 187.749 20.1266 188.091 20.2998C188.433 20.473 188.802 20.5596 189.198 20.5596C189.896 20.5596 190.436 20.3499 190.818 19.9307C191.201 19.516 191.393 18.9372 191.393 18.1943V12.5273L191.447 10.9004H192.213ZM186.259 14.5303C186.259 13.7646 186.373 13.0993 186.601 12.5342C186.828 11.9691 187.157 11.5339 187.585 11.2285C188.013 10.9186 188.524 10.7637 189.116 10.7637C189.545 10.7637 189.925 10.8343 190.258 10.9756C190.59 11.1169 190.878 11.3197 191.119 11.584C191.361 11.8483 191.554 12.1628 191.7 12.5273C191.851 12.8874 191.96 13.2907 192.028 13.7373V15.5898C191.955 16.1367 191.8 16.6243 191.563 17.0527C191.326 17.4811 191.003 17.8184 190.593 18.0645C190.187 18.3105 189.69 18.4336 189.103 18.4336C188.515 18.4336 188.007 18.2741 187.578 17.9551C187.154 17.6361 186.828 17.194 186.601 16.6289C186.373 16.0638 186.259 15.4121 186.259 14.6738V14.5303ZM187.079 14.6738C187.079 15.248 187.157 15.7653 187.312 16.2256C187.466 16.6813 187.703 17.0459 188.022 17.3193C188.346 17.5882 188.756 17.7227 189.253 17.7227C189.722 17.7227 190.114 17.6338 190.429 17.4561C190.743 17.2738 190.994 17.0345 191.181 16.7383C191.372 16.4375 191.511 16.1071 191.598 15.7471V13.6143C191.548 13.3773 191.47 13.1335 191.365 12.8828C191.265 12.6322 191.124 12.402 190.941 12.1924C190.764 11.9782 190.536 11.805 190.258 11.6729C189.984 11.5407 189.654 11.4746 189.267 11.4746C188.765 11.4746 188.353 11.609 188.029 11.8779C187.706 12.1468 187.466 12.5137 187.312 12.9785C187.157 13.4388 187.079 13.9561 187.079 14.5303V14.6738ZM195.166 18.2969H194.346V7.79688H195.166V18.2969ZM194.619 13.9287C194.656 13.3499 194.799 12.8213 195.05 12.3428C195.3 11.8643 195.64 11.4814 196.068 11.1943C196.501 10.9072 197 10.7637 197.565 10.7637C198.062 10.7637 198.486 10.8548 198.837 11.0371C199.188 11.2194 199.457 11.5111 199.644 11.9121C199.835 12.3086 199.931 12.8327 199.931 13.4844V18.2969H199.11V13.4775C199.11 12.9671 199.04 12.5661 198.898 12.2744C198.757 11.9827 198.557 11.7754 198.297 11.6523C198.037 11.5293 197.729 11.4678 197.374 11.4678C196.982 11.4678 196.638 11.5544 196.342 11.7275C196.05 11.8962 195.804 12.1172 195.604 12.3906C195.408 12.6595 195.257 12.9489 195.152 13.2588C195.048 13.5687 194.993 13.8604 194.988 14.1338L194.619 13.9287ZM204.839 11.5703H201.127V10.9004H204.839V11.5703ZM203.301 9V16.499C203.301 16.8408 203.346 17.1006 203.438 17.2783C203.529 17.4515 203.647 17.5677 203.793 17.627C203.943 17.6862 204.103 17.7158 204.271 17.7158C204.395 17.7158 204.511 17.709 204.62 17.6953C204.734 17.6771 204.837 17.6611 204.928 17.6475L204.962 18.3242C204.862 18.3561 204.732 18.3812 204.572 18.3994C204.413 18.4222 204.253 18.4336 204.094 18.4336C203.779 18.4336 203.501 18.3766 203.26 18.2627C203.018 18.1442 202.827 17.9437 202.686 17.6611C202.549 17.374 202.48 16.9844 202.48 16.4922V9H203.301ZM210.978 16.4102C210.978 16.2096 210.925 16.0114 210.82 15.8154C210.72 15.6195 210.529 15.4395 210.246 15.2754C209.964 15.1113 209.547 14.9701 208.995 14.8516C208.448 14.7376 207.981 14.5964 207.594 14.4277C207.211 14.2591 206.919 14.0426 206.719 13.7783C206.518 13.514 206.418 13.179 206.418 12.7734C206.418 12.4043 206.523 12.0693 206.732 11.7686C206.942 11.4632 207.243 11.2194 207.635 11.0371C208.027 10.8548 208.489 10.7637 209.022 10.7637C209.592 10.7637 210.08 10.8594 210.485 11.0508C210.896 11.2422 211.21 11.5042 211.429 11.8369C211.647 12.1696 211.757 12.5479 211.757 12.9717H210.93C210.93 12.5889 210.766 12.2402 210.438 11.9258C210.109 11.6113 209.638 11.4541 209.022 11.4541C208.599 11.4541 208.255 11.5202 207.99 11.6523C207.726 11.7799 207.532 11.944 207.409 12.1445C207.291 12.3405 207.231 12.541 207.231 12.7461C207.231 12.9648 207.282 13.1608 207.382 13.334C207.482 13.5026 207.674 13.6553 207.956 13.792C208.239 13.9287 208.656 14.0609 209.207 14.1885C209.804 14.3206 210.292 14.4824 210.67 14.6738C211.053 14.8607 211.335 15.0931 211.518 15.3711C211.704 15.6445 211.798 15.9772 211.798 16.3691C211.798 16.7747 211.684 17.1348 211.456 17.4492C211.233 17.7591 210.916 18.0007 210.506 18.1738C210.1 18.347 209.619 18.4336 209.063 18.4336C208.439 18.4336 207.91 18.3311 207.478 18.126C207.049 17.9163 206.723 17.6429 206.5 17.3057C206.281 16.9684 206.172 16.6061 206.172 16.2188H206.985C207.013 16.6061 207.133 16.9115 207.348 17.1348C207.566 17.3535 207.831 17.5107 208.141 17.6064C208.451 17.6976 208.758 17.7432 209.063 17.7432C209.483 17.7432 209.834 17.6816 210.116 17.5586C210.399 17.431 210.613 17.2669 210.759 17.0664C210.905 16.8613 210.978 16.6426 210.978 16.4102ZM220.466 8.34375C221.154 8.34375 221.751 8.4554 222.257 8.67871C222.763 8.90202 223.152 9.23242 223.426 9.66992C223.704 10.1029 223.843 10.6361 223.843 11.2695C223.843 11.7389 223.745 12.165 223.549 12.5479C223.353 12.9307 223.079 13.252 222.729 13.5117C222.382 13.7669 221.981 13.9424 221.525 14.0381L221.231 14.1475H217.779L217.766 13.4365H220.65C221.174 13.4365 221.61 13.3363 221.956 13.1357C222.302 12.9307 222.562 12.6641 222.735 12.3359C222.913 12.0033 223.002 11.6478 223.002 11.2695C223.002 10.5905 222.783 10.0527 222.346 9.65625C221.913 9.25977 221.286 9.06152 220.466 9.06152H218.073V18.2969H217.232V8.34375H220.466ZM220.801 13.8467L221.703 13.8398L224.273 18.208V18.2969H223.371L220.801 13.8467ZM228.819 18.4336C228.177 18.4336 227.605 18.2786 227.104 17.9688C226.607 17.6543 226.215 17.2259 225.928 16.6836C225.645 16.1367 225.504 15.5101 225.504 14.8037V14.5098C225.504 13.7487 225.65 13.0879 225.941 12.5273C226.238 11.9668 226.625 11.5339 227.104 11.2285C227.587 10.9186 228.108 10.7637 228.669 10.7637C229.298 10.7637 229.831 10.9095 230.269 11.2012C230.706 11.4883 231.036 11.887 231.26 12.3975C231.488 12.9079 231.602 13.4912 231.602 14.1475V14.6465H226.003V13.9561H230.781V13.8604C230.772 13.4456 230.688 13.056 230.528 12.6914C230.373 12.3268 230.141 12.0306 229.831 11.8027C229.521 11.5703 229.134 11.4541 228.669 11.4541C228.209 11.4541 227.801 11.584 227.445 11.8438C227.09 12.1035 226.814 12.4635 226.618 12.9238C226.422 13.3796 226.324 13.9082 226.324 14.5098V14.8037C226.324 15.3506 226.429 15.8451 226.639 16.2871C226.853 16.7292 227.151 17.0824 227.534 17.3467C227.917 17.611 228.357 17.7432 228.854 17.7432C229.291 17.7432 229.678 17.6634 230.016 17.5039C230.353 17.3398 230.656 17.0824 230.925 16.7314L231.444 17.1211C231.203 17.4811 230.87 17.791 230.446 18.0508C230.027 18.306 229.485 18.4336 228.819 18.4336ZM237.638 16.4102C237.638 16.2096 237.585 16.0114 237.48 15.8154C237.38 15.6195 237.189 15.4395 236.906 15.2754C236.624 15.1113 236.207 14.9701 235.655 14.8516C235.108 14.7376 234.641 14.5964 234.254 14.4277C233.871 14.2591 233.579 14.0426 233.379 13.7783C233.178 13.514 233.078 13.179 233.078 12.7734C233.078 12.4043 233.183 12.0693 233.393 11.7686C233.602 11.4632 233.903 11.2194 234.295 11.0371C234.687 10.8548 235.149 10.7637 235.683 10.7637C236.252 10.7637 236.74 10.8594 237.146 11.0508C237.556 11.2422 237.87 11.5042 238.089 11.8369C238.308 12.1696 238.417 12.5479 238.417 12.9717H237.59C237.59 12.5889 237.426 12.2402 237.098 11.9258C236.77 11.6113 236.298 11.4541 235.683 11.4541C235.259 11.4541 234.915 11.5202 234.65 11.6523C234.386 11.7799 234.192 11.944 234.069 12.1445C233.951 12.3405 233.892 12.541 233.892 12.7461C233.892 12.9648 233.942 13.1608 234.042 13.334C234.142 13.5026 234.334 13.6553 234.616 13.792C234.899 13.9287 235.316 14.0609 235.867 14.1885C236.464 14.3206 236.952 14.4824 237.33 14.6738C237.713 14.8607 237.995 15.0931 238.178 15.3711C238.365 15.6445 238.458 15.9772 238.458 16.3691C238.458 16.7747 238.344 17.1348 238.116 17.4492C237.893 17.7591 237.576 18.0007 237.166 18.1738C236.76 18.347 236.28 18.4336 235.724 18.4336C235.099 18.4336 234.571 18.3311 234.138 18.126C233.709 17.9163 233.383 17.6429 233.16 17.3057C232.941 16.9684 232.832 16.6061 232.832 16.2188H233.646C233.673 16.6061 233.794 16.9115 234.008 17.1348C234.227 17.3535 234.491 17.5107 234.801 17.6064C235.111 17.6976 235.418 17.7432 235.724 17.7432C236.143 17.7432 236.494 17.6816 236.776 17.5586C237.059 17.431 237.273 17.2669 237.419 17.0664C237.565 16.8613 237.638 16.6426 237.638 16.4102ZM243.161 18.4336C242.519 18.4336 241.947 18.2786 241.445 17.9688C240.949 17.6543 240.557 17.2259 240.27 16.6836C239.987 16.1367 239.846 15.5101 239.846 14.8037V14.5098C239.846 13.7487 239.992 13.0879 240.283 12.5273C240.579 11.9668 240.967 11.5339 241.445 11.2285C241.928 10.9186 242.45 10.7637 243.011 10.7637C243.64 10.7637 244.173 10.9095 244.61 11.2012C245.048 11.4883 245.378 11.887 245.602 12.3975C245.829 12.9079 245.943 13.4912 245.943 14.1475V14.6465H240.345V13.9561H245.123V13.8604C245.114 13.4456 245.03 13.056 244.87 12.6914C244.715 12.3268 244.483 12.0306 244.173 11.8027C243.863 11.5703 243.476 11.4541 243.011 11.4541C242.55 11.4541 242.143 11.584 241.787 11.8438C241.432 12.1035 241.156 12.4635 240.96 12.9238C240.764 13.3796 240.666 13.9082 240.666 14.5098V14.8037C240.666 15.3506 240.771 15.8451 240.98 16.2871C241.195 16.7292 241.493 17.0824 241.876 17.3467C242.259 17.611 242.699 17.7432 243.195 17.7432C243.633 17.7432 244.02 17.6634 244.357 17.5039C244.695 17.3398 244.998 17.0824 245.267 16.7314L245.786 17.1211C245.545 17.4811 245.212 17.791 244.788 18.0508C244.369 18.306 243.826 18.4336 243.161 18.4336ZM248.363 18.2969H247.543V10.9004H248.343L248.363 12.124V18.2969ZM250.961 11.5908C250.87 11.5771 250.781 11.5658 250.694 11.5566C250.608 11.5475 250.514 11.543 250.414 11.543C249.945 11.543 249.55 11.6569 249.231 11.8848C248.912 12.1126 248.669 12.418 248.5 12.8008C248.336 13.1836 248.247 13.612 248.233 14.0859L247.926 14.1953C247.926 13.5527 248.015 12.974 248.192 12.459C248.375 11.9395 248.65 11.527 249.02 11.2217C249.393 10.9163 249.867 10.7637 250.441 10.7637C250.546 10.7637 250.649 10.7728 250.749 10.791C250.854 10.8047 250.931 10.8229 250.981 10.8457L250.961 11.5908ZM256.936 10.9004H257.783L255.015 18.2969H254.413L254.57 17.5176L256.936 10.9004ZM254.823 17.5381L254.953 18.2969H254.352L251.576 10.9004H252.424L254.823 17.5381ZM261.987 18.4336C261.345 18.4336 260.773 18.2786 260.271 17.9688C259.775 17.6543 259.383 17.2259 259.096 16.6836C258.813 16.1367 258.672 15.5101 258.672 14.8037V14.5098C258.672 13.7487 258.818 13.0879 259.109 12.5273C259.406 11.9668 259.793 11.5339 260.271 11.2285C260.755 10.9186 261.276 10.7637 261.837 10.7637C262.466 10.7637 262.999 10.9095 263.437 11.2012C263.874 11.4883 264.204 11.887 264.428 12.3975C264.656 12.9079 264.77 13.4912 264.77 14.1475V14.6465H259.171V13.9561H263.949V13.8604C263.94 13.4456 263.856 13.056 263.696 12.6914C263.541 12.3268 263.309 12.0306 262.999 11.8027C262.689 11.5703 262.302 11.4541 261.837 11.4541C261.377 11.4541 260.969 11.584 260.613 11.8438C260.258 12.1035 259.982 12.4635 259.786 12.9238C259.59 13.3796 259.492 13.9082 259.492 14.5098V14.8037C259.492 15.3506 259.597 15.8451 259.807 16.2871C260.021 16.7292 260.319 17.0824 260.702 17.3467C261.085 17.611 261.525 17.7432 262.021 17.7432C262.459 17.7432 262.846 17.6634 263.184 17.5039C263.521 17.3398 263.824 17.0824 264.093 16.7314L264.612 17.1211C264.371 17.4811 264.038 17.791 263.614 18.0508C263.195 18.306 262.653 18.4336 261.987 18.4336ZM271.182 7.79688H272.002V18.2969H271.236L271.182 16.8613V7.79688ZM266.048 14.5303C266.048 13.7646 266.164 13.0993 266.396 12.5342C266.629 11.9691 266.957 11.5339 267.381 11.2285C267.809 10.9186 268.317 10.7637 268.905 10.7637C269.479 10.7637 269.967 10.889 270.368 11.1396C270.769 11.3857 271.088 11.7321 271.325 12.1787C271.567 12.6208 271.731 13.1403 271.817 13.7373V15.5898C271.744 16.1367 271.59 16.6243 271.353 17.0527C271.116 17.4811 270.792 17.8184 270.382 18.0645C269.976 18.3105 269.479 18.4336 268.892 18.4336C268.308 18.4336 267.802 18.2741 267.374 17.9551C266.95 17.6361 266.622 17.194 266.39 16.6289C266.162 16.0638 266.048 15.4121 266.048 14.6738V14.5303ZM266.868 14.6738C266.868 15.248 266.946 15.7653 267.101 16.2256C267.256 16.6813 267.493 17.0459 267.812 17.3193C268.135 17.5882 268.545 17.7227 269.042 17.7227C269.511 17.7227 269.906 17.6338 270.225 17.4561C270.544 17.2738 270.799 17.0345 270.99 16.7383C271.182 16.4375 271.321 16.1071 271.407 15.7471V13.6143C271.353 13.3773 271.273 13.1335 271.168 12.8828C271.063 12.6322 270.92 12.402 270.737 12.1924C270.56 11.9782 270.332 11.805 270.054 11.6729C269.78 11.5407 269.448 11.4746 269.056 11.4746C268.554 11.4746 268.142 11.609 267.818 11.8779C267.495 12.1468 267.256 12.5137 267.101 12.9785C266.946 13.4388 266.868 13.9561 266.868 14.5303V14.6738ZM278.414 20.1426H277.724V8.34375H278.414V20.1426ZM284.833 14.2432V13.5254H287.677C288.269 13.5254 288.75 13.4297 289.119 13.2383C289.488 13.0423 289.757 12.778 289.926 12.4453C290.099 12.1126 290.186 11.7389 290.186 11.3242C290.186 10.9186 290.099 10.5449 289.926 10.2031C289.757 9.86133 289.488 9.58561 289.119 9.37598C288.75 9.16634 288.269 9.06152 287.677 9.06152H285.127V18.2969H284.286V8.34375H287.677C288.406 8.34375 289.019 8.46908 289.516 8.71973C290.012 8.97038 290.388 9.31901 290.644 9.76562C290.899 10.2077 291.026 10.7227 291.026 11.3105C291.026 11.9212 290.899 12.4476 290.644 12.8896C290.393 13.3271 290.017 13.6621 289.516 13.8945C289.019 14.127 288.406 14.2432 287.677 14.2432H284.833ZM293.535 18.2969H292.715V10.9004H293.515L293.535 12.124V18.2969ZM296.133 11.5908C296.042 11.5771 295.953 11.5658 295.866 11.5566C295.78 11.5475 295.686 11.543 295.586 11.543C295.117 11.543 294.722 11.6569 294.403 11.8848C294.084 12.1126 293.84 12.418 293.672 12.8008C293.508 13.1836 293.419 13.612 293.405 14.0859L293.098 14.1953C293.098 13.5527 293.187 12.974 293.364 12.459C293.547 11.9395 293.822 11.527 294.191 11.2217C294.565 10.9163 295.039 10.7637 295.613 10.7637C295.718 10.7637 295.821 10.7728 295.921 10.791C296.026 10.8047 296.103 10.8229 296.153 10.8457L296.133 11.5908ZM298.348 18.2969H297.534V10.9004H298.348V18.2969ZM297.391 8.76074C297.391 8.60579 297.438 8.47591 297.534 8.37109C297.634 8.26172 297.771 8.20703 297.944 8.20703C298.122 8.20703 298.261 8.26172 298.361 8.37109C298.462 8.47591 298.512 8.60579 298.512 8.76074C298.512 8.91113 298.462 9.03874 298.361 9.14355C298.261 9.24837 298.122 9.30078 297.944 9.30078C297.771 9.30078 297.634 9.24837 297.534 9.14355C297.438 9.03874 297.391 8.91113 297.391 8.76074ZM305.129 10.9004H305.977L303.208 18.2969H302.606L302.764 17.5176L305.129 10.9004ZM303.017 17.5381L303.146 18.2969H302.545L299.77 10.9004H300.617L303.017 17.5381ZM311.712 13.1562C311.712 12.6276 311.548 12.2106 311.22 11.9053C310.892 11.5999 310.42 11.4473 309.805 11.4473C309.422 11.4473 309.08 11.5156 308.779 11.6523C308.483 11.7845 308.248 11.9645 308.075 12.1924C307.907 12.4157 307.822 12.6663 307.822 12.9443L307.002 12.9375C307.002 12.5638 307.12 12.2129 307.357 11.8848C307.599 11.5521 307.932 11.2832 308.355 11.0781C308.784 10.8685 309.278 10.7637 309.839 10.7637C310.368 10.7637 310.832 10.8525 311.233 11.0303C311.639 11.208 311.956 11.4746 312.184 11.8301C312.416 12.1855 312.532 12.6322 312.532 13.1699V16.7451C312.532 17.0003 312.55 17.2646 312.587 17.5381C312.628 17.8115 312.685 18.0371 312.758 18.2148V18.2969H311.883C311.828 18.1328 311.785 17.9277 311.753 17.6816C311.726 17.431 311.712 17.194 311.712 16.9707V13.1562ZM311.917 14.6191H310.311C309.477 14.6191 308.823 14.7673 308.349 15.0635C307.879 15.3551 307.645 15.7539 307.645 16.2598C307.645 16.6608 307.793 17.0026 308.089 17.2852C308.39 17.5677 308.795 17.709 309.306 17.709C309.761 17.709 310.162 17.627 310.509 17.4629C310.86 17.2943 311.147 17.071 311.37 16.793C311.598 16.515 311.753 16.2142 311.835 15.8906L312.19 16.3623C312.131 16.5902 312.022 16.8249 311.862 17.0664C311.707 17.3034 311.505 17.5267 311.254 17.7363C311.003 17.9414 310.707 18.11 310.365 18.2422C310.028 18.3698 309.645 18.4336 309.217 18.4336C308.734 18.4336 308.312 18.3424 307.952 18.1602C307.597 17.9779 307.319 17.7295 307.118 17.415C306.922 17.096 306.824 16.736 306.824 16.335C306.824 15.6058 307.125 15.0339 307.727 14.6191C308.333 14.1999 309.158 13.9902 310.201 13.9902H311.903L311.917 14.6191ZM317.447 17.7432C317.794 17.7432 318.117 17.6771 318.418 17.5449C318.723 17.4082 318.974 17.2122 319.17 16.957C319.37 16.6973 319.484 16.3805 319.512 16.0068H320.298C320.275 16.4762 320.132 16.8955 319.867 17.2646C319.603 17.6292 319.259 17.9163 318.835 18.126C318.416 18.3311 317.953 18.4336 317.447 18.4336C316.759 18.4336 316.18 18.2718 315.711 17.9482C315.242 17.6201 314.888 17.1781 314.651 16.6221C314.414 16.0615 314.296 15.4349 314.296 14.7422V14.4551C314.296 13.7578 314.414 13.1312 314.651 12.5752C314.893 12.0192 315.246 11.5794 315.711 11.2559C316.18 10.9277 316.757 10.7637 317.44 10.7637C317.969 10.7637 318.443 10.8708 318.862 11.085C319.286 11.2992 319.626 11.6022 319.881 11.9941C320.136 12.3861 320.275 12.8509 320.298 13.3887H319.512C319.489 12.9922 319.384 12.6504 319.197 12.3633C319.01 12.0716 318.764 11.8483 318.459 11.6934C318.154 11.5339 317.814 11.4541 317.44 11.4541C316.884 11.4541 316.433 11.5954 316.087 11.8779C315.745 12.1605 315.497 12.5296 315.342 12.9854C315.187 13.4411 315.109 13.931 315.109 14.4551V14.7422C315.109 15.2663 315.187 15.7585 315.342 16.2188C315.497 16.6745 315.745 17.0436 316.087 17.3262C316.433 17.6042 316.887 17.7432 317.447 17.7432ZM326.437 10.9004H327.318L324.188 19.4863C324.124 19.6549 324.042 19.8418 323.941 20.0469C323.846 20.252 323.72 20.4479 323.565 20.6348C323.41 20.8262 323.215 20.9811 322.978 21.0996C322.741 21.2227 322.453 21.2842 322.116 21.2842C322.057 21.2842 321.986 21.2796 321.904 21.2705C321.822 21.2614 321.743 21.25 321.665 21.2363C321.588 21.2227 321.528 21.209 321.487 21.1953V20.5117C321.537 20.5254 321.61 20.5368 321.706 20.5459C321.802 20.555 321.868 20.5596 321.904 20.5596C322.351 20.5596 322.693 20.4456 322.93 20.2178C323.171 19.9945 323.367 19.6618 323.518 19.2197L324.126 17.5586L326.437 10.9004ZM324.338 17.2578L324.557 18.1055L323.955 18.4404L321.091 10.9004H321.979L324.338 17.2578ZM332.753 14.2432V13.5254H335.597C336.189 13.5254 336.67 13.4297 337.039 13.2383C337.408 13.0423 337.677 12.778 337.846 12.4453C338.019 12.1126 338.105 11.7389 338.105 11.3242C338.105 10.9186 338.019 10.5449 337.846 10.2031C337.677 9.86133 337.408 9.58561 337.039 9.37598C336.67 9.16634 336.189 9.06152 335.597 9.06152H333.047V18.2969H332.206V8.34375H335.597C336.326 8.34375 336.939 8.46908 337.436 8.71973C337.932 8.97038 338.308 9.31901 338.563 9.76562C338.819 10.2077 338.946 10.7227 338.946 11.3105C338.946 11.9212 338.819 12.4476 338.563 12.8896C338.313 13.3271 337.937 13.6621 337.436 13.8945C336.939 14.127 336.326 14.2432 335.597 14.2432H332.753ZM340.095 14.4893C340.095 13.7692 340.231 13.1289 340.505 12.5684C340.778 12.0078 341.161 11.568 341.653 11.249C342.146 10.9255 342.724 10.7637 343.39 10.7637C344.06 10.7637 344.643 10.9255 345.14 11.249C345.636 11.568 346.019 12.0078 346.288 12.5684C346.562 13.1289 346.698 13.7692 346.698 14.4893V14.7148C346.698 15.4303 346.562 16.0684 346.288 16.6289C346.019 17.1895 345.636 17.6315 345.14 17.9551C344.647 18.2741 344.069 18.4336 343.403 18.4336C342.733 18.4336 342.15 18.2741 341.653 17.9551C341.161 17.6315 340.778 17.1895 340.505 16.6289C340.231 16.0684 340.095 15.4303 340.095 14.7148V14.4893ZM340.915 14.7148C340.915 15.2526 341.011 15.7516 341.202 16.2119C341.394 16.6722 341.674 17.0436 342.043 17.3262C342.412 17.6042 342.866 17.7432 343.403 17.7432C343.937 17.7432 344.385 17.6042 344.75 17.3262C345.119 17.0436 345.399 16.6722 345.591 16.2119C345.782 15.7516 345.878 15.2526 345.878 14.7148V14.4893C345.878 13.9561 345.782 13.4593 345.591 12.999C345.399 12.5387 345.119 12.1673 344.75 11.8848C344.381 11.5977 343.927 11.4541 343.39 11.4541C342.856 11.4541 342.405 11.5977 342.036 11.8848C341.667 12.1673 341.387 12.5387 341.195 12.999C341.008 13.4593 340.915 13.9561 340.915 14.4893V14.7148ZM349.303 18.2969H348.489V7.79688H349.303V18.2969ZM352.447 18.2969H351.634V10.9004H352.447V18.2969ZM351.49 8.76074C351.49 8.60579 351.538 8.47591 351.634 8.37109C351.734 8.26172 351.871 8.20703 352.044 8.20703C352.222 8.20703 352.361 8.26172 352.461 8.37109C352.561 8.47591 352.611 8.60579 352.611 8.76074C352.611 8.91113 352.561 9.03874 352.461 9.14355C352.361 9.24837 352.222 9.30078 352.044 9.30078C351.871 9.30078 351.734 9.24837 351.634 9.14355C351.538 9.03874 351.49 8.91113 351.49 8.76074ZM357.41 17.7432C357.757 17.7432 358.08 17.6771 358.381 17.5449C358.686 17.4082 358.937 17.2122 359.133 16.957C359.333 16.6973 359.447 16.3805 359.475 16.0068H360.261C360.238 16.4762 360.094 16.8955 359.83 17.2646C359.566 17.6292 359.222 17.9163 358.798 18.126C358.379 18.3311 357.916 18.4336 357.41 18.4336C356.722 18.4336 356.143 18.2718 355.674 17.9482C355.204 17.6201 354.851 17.1781 354.614 16.6221C354.377 16.0615 354.259 15.4349 354.259 14.7422V14.4551C354.259 13.7578 354.377 13.1312 354.614 12.5752C354.856 12.0192 355.209 11.5794 355.674 11.2559C356.143 10.9277 356.72 10.7637 357.403 10.7637C357.932 10.7637 358.406 10.8708 358.825 11.085C359.249 11.2992 359.589 11.6022 359.844 11.9941C360.099 12.3861 360.238 12.8509 360.261 13.3887H359.475C359.452 12.9922 359.347 12.6504 359.16 12.3633C358.973 12.0716 358.727 11.8483 358.422 11.6934C358.117 11.5339 357.777 11.4541 357.403 11.4541C356.847 11.4541 356.396 11.5954 356.05 11.8779C355.708 12.1605 355.46 12.5296 355.305 12.9854C355.15 13.4411 355.072 13.931 355.072 14.4551V14.7422C355.072 15.2663 355.15 15.7585 355.305 16.2188C355.46 16.6745 355.708 17.0436 356.05 17.3262C356.396 17.6042 356.85 17.7432 357.41 17.7432ZM366.399 10.9004H367.281L364.15 19.4863C364.087 19.6549 364.005 19.8418 363.904 20.0469C363.809 20.252 363.683 20.4479 363.528 20.6348C363.373 20.8262 363.177 20.9811 362.94 21.0996C362.703 21.2227 362.416 21.2842 362.079 21.2842C362.02 21.2842 361.949 21.2796 361.867 21.2705C361.785 21.2614 361.705 21.25 361.628 21.2363C361.55 21.2227 361.491 21.209 361.45 21.1953V20.5117C361.5 20.5254 361.573 20.5368 361.669 20.5459C361.765 20.555 361.831 20.5596 361.867 20.5596C362.314 20.5596 362.656 20.4456 362.893 20.2178C363.134 19.9945 363.33 19.6618 363.48 19.2197L364.089 17.5586L366.399 10.9004ZM364.301 17.2578L364.52 18.1055L363.918 18.4404L361.054 10.9004H361.942L364.301 17.2578ZM372.818 20.1426H372.128V8.34375H372.818V20.1426ZM385.731 15.1934C385.663 15.8633 385.479 16.4421 385.178 16.9297C384.882 17.4128 384.471 17.7842 383.947 18.0439C383.428 18.3037 382.801 18.4336 382.067 18.4336C381.315 18.4336 380.659 18.2467 380.099 17.873C379.538 17.4993 379.103 16.9753 378.793 16.3008C378.483 15.6263 378.328 14.8424 378.328 13.9492V12.6982C378.328 11.8005 378.483 11.0143 378.793 10.3398C379.103 9.66536 379.543 9.14128 380.112 8.76758C380.682 8.39388 381.354 8.20703 382.129 8.20703C382.84 8.20703 383.451 8.33464 383.961 8.58984C384.476 8.84505 384.882 9.21647 385.178 9.7041C385.479 10.1872 385.663 10.7705 385.731 11.4541H384.891C384.79 10.652 384.519 10.0299 384.077 9.58789C383.635 9.14583 382.986 8.9248 382.129 8.9248C381.514 8.9248 380.985 9.08203 380.543 9.39648C380.105 9.70638 379.766 10.1439 379.524 10.709C379.287 11.2695 379.169 11.9281 379.169 12.6846V13.9492C379.169 14.6738 379.283 15.321 379.511 15.8906C379.739 16.4603 380.067 16.9092 380.495 17.2373C380.928 17.5609 381.452 17.7227 382.067 17.7227C382.655 17.7227 383.145 17.6292 383.537 17.4424C383.929 17.251 384.234 16.9684 384.453 16.5947C384.672 16.2165 384.818 15.7493 384.891 15.1934H385.731ZM387.14 14.4893C387.14 13.7692 387.276 13.1289 387.55 12.5684C387.823 12.0078 388.206 11.568 388.698 11.249C389.19 10.9255 389.769 10.7637 390.435 10.7637C391.104 10.7637 391.688 10.9255 392.185 11.249C392.681 11.568 393.064 12.0078 393.333 12.5684C393.606 13.1289 393.743 13.7692 393.743 14.4893V14.7148C393.743 15.4303 393.606 16.0684 393.333 16.6289C393.064 17.1895 392.681 17.6315 392.185 17.9551C391.692 18.2741 391.114 18.4336 390.448 18.4336C389.778 18.4336 389.195 18.2741 388.698 17.9551C388.206 17.6315 387.823 17.1895 387.55 16.6289C387.276 16.0684 387.14 15.4303 387.14 14.7148V14.4893ZM387.96 14.7148C387.96 15.2526 388.056 15.7516 388.247 16.2119C388.438 16.6722 388.719 17.0436 389.088 17.3262C389.457 17.6042 389.91 17.7432 390.448 17.7432C390.981 17.7432 391.43 17.6042 391.795 17.3262C392.164 17.0436 392.444 16.6722 392.636 16.2119C392.827 15.7516 392.923 15.2526 392.923 14.7148V14.4893C392.923 13.9561 392.827 13.4593 392.636 12.999C392.444 12.5387 392.164 12.1673 391.795 11.8848C391.426 11.5977 390.972 11.4541 390.435 11.4541C389.901 11.4541 389.45 11.5977 389.081 11.8848C388.712 12.1673 388.432 12.5387 388.24 12.999C388.053 13.4593 387.96 13.9561 387.96 14.4893V14.7148ZM396.252 18.2969H395.432V10.9004H396.218L396.252 12.4795V18.2969ZM395.705 13.9287C395.742 13.3499 395.885 12.8213 396.136 12.3428C396.386 11.8643 396.726 11.4814 397.154 11.1943C397.587 10.9072 398.086 10.7637 398.651 10.7637C399.148 10.7637 399.572 10.8548 399.923 11.0371C400.274 11.2194 400.543 11.5111 400.729 11.9121C400.921 12.3086 401.017 12.8327 401.017 13.4844V18.2969H400.196V13.4775C400.196 12.9671 400.126 12.5661 399.984 12.2744C399.843 11.9827 399.643 11.7754 399.383 11.6523C399.123 11.5293 398.815 11.4678 398.46 11.4678C398.068 11.4678 397.724 11.5544 397.428 11.7275C397.136 11.8962 396.89 12.1172 396.689 12.3906C396.493 12.6595 396.343 12.9489 396.238 13.2588C396.133 13.5687 396.079 13.8604 396.074 14.1338L395.705 13.9287ZM405.938 11.5703H402.227V10.9004H405.938V11.5703ZM404.4 9V16.499C404.4 16.8408 404.446 17.1006 404.537 17.2783C404.628 17.4515 404.747 17.5677 404.893 17.627C405.043 17.6862 405.202 17.7158 405.371 17.7158C405.494 17.7158 405.61 17.709 405.72 17.6953C405.834 17.6771 405.936 17.6611 406.027 17.6475L406.062 18.3242C405.961 18.3561 405.831 18.3812 405.672 18.3994C405.512 18.4222 405.353 18.4336 405.193 18.4336C404.879 18.4336 404.601 18.3766 404.359 18.2627C404.118 18.1442 403.926 17.9437 403.785 17.6611C403.648 17.374 403.58 16.9844 403.58 16.4922V9H404.4ZM412.146 13.1562C412.146 12.6276 411.981 12.2106 411.653 11.9053C411.325 11.5999 410.854 11.4473 410.238 11.4473C409.855 11.4473 409.514 11.5156 409.213 11.6523C408.917 11.7845 408.682 11.9645 408.509 12.1924C408.34 12.4157 408.256 12.6663 408.256 12.9443L407.436 12.9375C407.436 12.5638 407.554 12.2129 407.791 11.8848C408.033 11.5521 408.365 11.2832 408.789 11.0781C409.217 10.8685 409.712 10.7637 410.272 10.7637C410.801 10.7637 411.266 10.8525 411.667 11.0303C412.073 11.208 412.389 11.4746 412.617 11.8301C412.85 12.1855 412.966 12.6322 412.966 13.1699V16.7451C412.966 17.0003 412.984 17.2646 413.021 17.5381C413.062 17.8115 413.118 18.0371 413.191 18.2148V18.2969H412.316C412.262 18.1328 412.218 17.9277 412.187 17.6816C412.159 17.431 412.146 17.194 412.146 16.9707V13.1562ZM412.351 14.6191H410.744C409.91 14.6191 409.256 14.7673 408.782 15.0635C408.313 15.3551 408.078 15.7539 408.078 16.2598C408.078 16.6608 408.226 17.0026 408.522 17.2852C408.823 17.5677 409.229 17.709 409.739 17.709C410.195 17.709 410.596 17.627 410.942 17.4629C411.293 17.2943 411.58 17.071 411.804 16.793C412.032 16.515 412.187 16.2142 412.269 15.8906L412.624 16.3623C412.565 16.5902 412.455 16.8249 412.296 17.0664C412.141 17.3034 411.938 17.5267 411.688 17.7363C411.437 17.9414 411.141 18.11 410.799 18.2422C410.462 18.3698 410.079 18.4336 409.65 18.4336C409.167 18.4336 408.746 18.3424 408.386 18.1602C408.03 17.9779 407.752 17.7295 407.552 17.415C407.356 17.096 407.258 16.736 407.258 16.335C407.258 15.6058 407.559 15.0339 408.16 14.6191C408.766 14.1999 409.591 13.9902 410.635 13.9902H412.337L412.351 14.6191ZM417.881 17.7432C418.227 17.7432 418.551 17.6771 418.852 17.5449C419.157 17.4082 419.408 17.2122 419.604 16.957C419.804 16.6973 419.918 16.3805 419.945 16.0068H420.731C420.709 16.4762 420.565 16.8955 420.301 17.2646C420.036 17.6292 419.692 17.9163 419.269 18.126C418.849 18.3311 418.387 18.4336 417.881 18.4336C417.193 18.4336 416.614 18.2718 416.145 17.9482C415.675 17.6201 415.322 17.1781 415.085 16.6221C414.848 16.0615 414.729 15.4349 414.729 14.7422V14.4551C414.729 13.7578 414.848 13.1312 415.085 12.5752C415.326 12.0192 415.68 11.5794 416.145 11.2559C416.614 10.9277 417.19 10.7637 417.874 10.7637C418.403 10.7637 418.877 10.8708 419.296 11.085C419.72 11.2992 420.059 11.6022 420.314 11.9941C420.57 12.3861 420.709 12.8509 420.731 13.3887H419.945C419.923 12.9922 419.818 12.6504 419.631 12.3633C419.444 12.0716 419.198 11.8483 418.893 11.6934C418.587 11.5339 418.248 11.4541 417.874 11.4541C417.318 11.4541 416.867 11.5954 416.521 11.8779C416.179 12.1605 415.93 12.5296 415.775 12.9854C415.62 13.4411 415.543 13.931 415.543 14.4551V14.7422C415.543 15.2663 415.62 15.7585 415.775 16.2188C415.93 16.6745 416.179 17.0436 416.521 17.3262C416.867 17.6042 417.32 17.7432 417.881 17.7432ZM425.175 11.5703H421.463V10.9004H425.175V11.5703ZM423.637 9V16.499C423.637 16.8408 423.682 17.1006 423.773 17.2783C423.865 17.4515 423.983 17.5677 424.129 17.627C424.279 17.6862 424.439 17.7158 424.607 17.7158C424.73 17.7158 424.847 17.709 424.956 17.6953C425.07 17.6771 425.173 17.6611 425.264 17.6475L425.298 18.3242C425.198 18.3561 425.068 18.3812 424.908 18.3994C424.749 18.4222 424.589 18.4336 424.43 18.4336C424.115 18.4336 423.837 18.3766 423.596 18.2627C423.354 18.1442 423.163 17.9437 423.021 17.6611C422.885 17.374 422.816 16.9844 422.816 16.4922V9H423.637ZM437.343 8.34375V15.084C437.343 15.8314 437.186 16.4535 436.871 16.9502C436.557 17.4469 436.133 17.8184 435.6 18.0645C435.071 18.3105 434.485 18.4336 433.843 18.4336C433.182 18.4336 432.587 18.3105 432.059 18.0645C431.53 17.8184 431.111 17.4469 430.801 16.9502C430.495 16.4535 430.343 15.8314 430.343 15.084V8.34375H431.177V15.084C431.177 15.6628 431.291 16.1481 431.519 16.54C431.751 16.932 432.065 17.2282 432.462 17.4287C432.863 17.6247 433.323 17.7227 433.843 17.7227C434.358 17.7227 434.816 17.6247 435.217 17.4287C435.618 17.2282 435.932 16.932 436.16 16.54C436.388 16.1481 436.502 15.6628 436.502 15.084V8.34375H437.343ZM443.946 16.4102C443.946 16.2096 443.894 16.0114 443.789 15.8154C443.689 15.6195 443.497 15.4395 443.215 15.2754C442.932 15.1113 442.515 14.9701 441.964 14.8516C441.417 14.7376 440.95 14.5964 440.562 14.4277C440.18 14.2591 439.888 14.0426 439.688 13.7783C439.487 13.514 439.387 13.179 439.387 12.7734C439.387 12.4043 439.492 12.0693 439.701 11.7686C439.911 11.4632 440.212 11.2194 440.604 11.0371C440.995 10.8548 441.458 10.7637 441.991 10.7637C442.561 10.7637 443.049 10.8594 443.454 11.0508C443.864 11.2422 444.179 11.5042 444.397 11.8369C444.616 12.1696 444.726 12.5479 444.726 12.9717H443.898C443.898 12.5889 443.734 12.2402 443.406 11.9258C443.078 11.6113 442.606 11.4541 441.991 11.4541C441.567 11.4541 441.223 11.5202 440.959 11.6523C440.695 11.7799 440.501 11.944 440.378 12.1445C440.259 12.3405 440.2 12.541 440.2 12.7461C440.2 12.9648 440.25 13.1608 440.351 13.334C440.451 13.5026 440.642 13.6553 440.925 13.792C441.207 13.9287 441.624 14.0609 442.176 14.1885C442.773 14.3206 443.26 14.4824 443.639 14.6738C444.021 14.8607 444.304 15.0931 444.486 15.3711C444.673 15.6445 444.767 15.9772 444.767 16.3691C444.767 16.7747 444.653 17.1348 444.425 17.4492C444.201 17.7591 443.885 18.0007 443.475 18.1738C443.069 18.347 442.588 18.4336 442.032 18.4336C441.408 18.4336 440.879 18.3311 440.446 18.126C440.018 17.9163 439.692 17.6429 439.469 17.3057C439.25 16.9684 439.141 16.6061 439.141 16.2188H439.954C439.981 16.6061 440.102 16.9115 440.316 17.1348C440.535 17.3535 440.799 17.5107 441.109 17.6064C441.419 17.6976 441.727 17.7432 442.032 17.7432C442.451 17.7432 442.802 17.6816 443.085 17.5586C443.368 17.431 443.582 17.2669 443.728 17.0664C443.873 16.8613 443.946 16.6426 443.946 16.4102Z" fill="white"/>
</svg>
