<svg width="303" height="30" viewBox="0 0 303 30" fill="none" xmlns="http://www.w3.org/2000/svg">
<path d="M18.875 9.53516V5.9668C18.834 5.9668 18.834 5.9668 18.834 5.9668C17.8496 5.9668 16.9062 5.67969 16.127 5.14648C14.9785 4.4082 14.1582 3.21875 13.9121 1.86523C13.8301 1.57812 13.8301 1.29102 13.8301 1.00391C13.8301 0.962891 13.8301 0.962891 13.8301 0.921875H10.2207V15.2773C10.2207 16.959 8.82617 18.3535 7.14453 18.3535C5.46289 18.3535 4.06836 16.959 4.06836 15.2773C4.06836 13.5957 5.46289 12.2012 7.14453 12.2012C7.47266 12.2012 7.75977 12.2422 8.08789 12.3652V8.67383C7.75977 8.63281 7.47266 8.5918 7.14453 8.5918C3.45312 8.5918 0.5 11.5859 0.5 15.2773C0.5 18.9688 3.45312 21.9219 7.14453 21.9219C10.8359 21.9219 13.8301 18.9688 13.8301 15.2773V7.93555C15.2246 8.96094 16.9473 9.53516 18.834 9.53516H18.875Z" fill="white"/>
<path d="M61.2051 6.04883C60.959 5.06445 60.1797 4.28516 59.2363 4.03906C57.4727 3.54688 50.5 3.54688 50.5 3.54688C50.5 3.54688 43.4863 3.54688 41.7227 4.03906C40.7793 4.28516 40 5.06445 39.7539 6.04883C39.2617 7.77148 39.2617 11.4629 39.2617 11.4629C39.2617 11.4629 39.2617 15.1133 39.7539 16.877C40 17.8613 40.7793 18.5996 41.7227 18.8457C43.4863 19.2969 50.5 19.2969 50.5 19.2969C50.5 19.2969 57.4727 19.2969 59.2363 18.8457C60.1797 18.5996 60.959 17.8613 61.2051 16.877C61.6973 15.1133 61.6973 11.4629 61.6973 11.4629C61.6973 11.4629 61.6973 7.77148 61.2051 6.04883ZM48.2031 14.7852V8.14062L54.0273 11.4629L48.2031 14.7852Z" fill="white"/>
<path d="M91.3125 6.70508C88.6875 6.70508 86.5957 8.83789 86.5957 11.4219C86.5957 14.0469 88.6875 16.1387 91.3125 16.1387C93.8965 16.1387 96.0293 14.0469 96.0293 11.4219C96.0293 8.83789 93.8965 6.70508 91.3125 6.70508ZM91.3125 14.498C89.6309 14.498 88.2363 13.1445 88.2363 11.4219C88.2363 9.74023 89.5898 8.38672 91.3125 8.38672C92.9941 8.38672 94.3477 9.74023 94.3477 11.4219C94.3477 13.1445 92.9941 14.498 91.3125 14.498ZM97.3008 6.54102C97.3008 5.92578 96.8086 5.43359 96.1934 5.43359C95.5781 5.43359 95.0859 5.92578 95.0859 6.54102C95.0859 7.15625 95.5781 7.64844 96.1934 7.64844C96.8086 7.64844 97.3008 7.15625 97.3008 6.54102ZM100.418 7.64844C100.336 6.17188 100.008 4.85938 98.9414 3.79297C97.875 2.72656 96.5625 2.39844 95.0859 2.31641C93.5684 2.23438 89.0156 2.23438 87.498 2.31641C86.0215 2.39844 84.75 2.72656 83.6426 3.79297C82.5762 4.85938 82.248 6.17188 82.166 7.64844C82.084 9.16602 82.084 13.7188 82.166 15.2363C82.248 16.7129 82.5762 17.9844 83.6426 19.0918C84.75 20.1582 86.0215 20.4863 87.498 20.5684C89.0156 20.6504 93.5684 20.6504 95.0859 20.5684C96.5625 20.4863 97.875 20.1582 98.9414 19.0918C100.008 17.9844 100.336 16.7129 100.418 15.2363C100.5 13.7188 100.5 9.16602 100.418 7.64844ZM98.4492 16.8359C98.1621 17.6562 97.5059 18.2715 96.7266 18.5996C95.4961 19.0918 92.625 18.9688 91.3125 18.9688C89.959 18.9688 87.0879 19.0918 85.8984 18.5996C85.0781 18.2715 84.4629 17.6562 84.1348 16.8359C83.6426 15.6465 83.7656 12.7754 83.7656 11.4219C83.7656 10.1094 83.6426 7.23828 84.1348 6.00781C84.4629 5.22852 85.0781 4.61328 85.8984 4.28516C87.0879 3.79297 89.959 3.91602 91.3125 3.91602C92.625 3.91602 95.4961 3.79297 96.7266 4.28516C97.5059 4.57227 98.1211 5.22852 98.4492 6.00781C98.9414 7.23828 98.8184 10.1094 98.8184 11.4219C98.8184 12.7754 98.9414 15.6465 98.4492 16.8359Z" fill="white"/>
<g clip-path="url(#clip0_5_416)">
<path d="M122.973 22.2559V11.7763H120.339V8.16498L122.973 8.16334L122.97 6.03633C122.97 3.09019 123.769 1.29679 127.239 1.29679H130.819V4.90978H128.322C126.97 4.90978 126.906 5.4141 126.906 6.35563L126.901 8.16334H130.853L130.47 11.7751L126.903 11.7763L126.901 22.2559H122.973Z" fill="white"/>
</g>
<path d="M179.951 7.15625C180.771 6.54102 181.51 5.80273 182.084 4.94141C181.346 5.26953 180.484 5.51562 179.623 5.59766C180.525 5.06445 181.182 4.24414 181.51 3.21875C180.689 3.71094 179.746 4.08008 178.803 4.28516C177.982 3.42383 176.875 2.93164 175.645 2.93164C173.266 2.93164 171.338 4.85938 171.338 7.23828C171.338 7.56641 171.379 7.89453 171.461 8.22266C167.893 8.01758 164.693 6.29492 162.561 3.71094C162.191 4.32617 161.986 5.06445 161.986 5.88477C161.986 7.36133 162.725 8.67383 163.914 9.45312C163.217 9.41211 162.52 9.24805 161.945 8.91992V8.96094C161.945 11.0527 163.422 12.7754 165.391 13.1855C165.062 13.2676 164.652 13.3496 164.283 13.3496C163.996 13.3496 163.75 13.3086 163.463 13.2676C163.996 14.9902 165.596 16.2207 167.482 16.2617C166.006 17.4102 164.16 18.1074 162.15 18.1074C161.781 18.1074 161.453 18.0664 161.125 18.0254C163.012 19.2559 165.268 19.9531 167.729 19.9531C175.645 19.9531 179.951 13.4316 179.951 7.73047C179.951 7.52539 179.951 7.36133 179.951 7.15625Z" fill="white"/>
<defs>
<clipPath id="clip0_5_416">
<rect width="21.8125" height="21" fill="white" transform="matrix(1 0 0 -1 120.312 22.2969)"/>
</clipPath>
</defs>
</svg>
